<svg width="36" height="36" viewBox="0 0 36 36" fill="none" xmlns="http://www.w3.org/2000/svg">
<path d="M25.0501 28.47H10.9501C10.3201 28.47 9.61505 27.975 9.40505 27.375L3.19505 10.005C2.31005 7.51498 3.34505 6.74998 5.47505 8.27998L11.3251 12.465C12.3001 13.14 13.4101 12.795 13.8301 11.7L16.4701 4.66498C17.3101 2.41498 18.7051 2.41498 19.5451 4.66498L22.1851 11.7C22.6051 12.795 23.7151 13.14 24.6751 12.465L30.1651 8.54998C32.5051 6.86998 33.6301 7.72498 32.6701 10.44L26.6101 27.405C26.3851 27.975 25.6801 28.47 25.0501 28.47Z" stroke="#066AC9" stroke-width="1.25611" stroke-linecap="round" stroke-linejoin="round"/>
<path opacity="0.34" d="M9.75 33H26.25" stroke="#066AC9" stroke-width="1.25611" stroke-linecap="round" stroke-linejoin="round"/>
<path opacity="0.34" d="M14.25 21H21.75" stroke="#066AC9" stroke-width="1.25611" stroke-linecap="round" stroke-linejoin="round"/>
</svg>
