<svg width="62" height="62" viewBox="0 0 62 62" fill="none" xmlns="http://www.w3.org/2000/svg">
<path d="M11.0049 28.4683V41.3075C11.0049 46.0091 11.0049 46.0091 15.4482 49.0058L27.6674 56.0583C29.5015 57.1175 32.4982 57.1175 34.3324 56.0583L46.5515 49.0058C50.9949 46.0091 50.9949 46.0091 50.9949 41.3075V28.4683C50.9949 23.7666 50.9949 23.7666 46.5515 20.77L34.3324 13.7175C32.4982 12.6583 29.5015 12.6583 27.6674 13.7175L15.4482 20.77C11.0049 23.7666 11.0049 23.7666 11.0049 28.4683Z" stroke="#F3601E" stroke-width="2" stroke-linecap="round" stroke-linejoin="round"/>
<path opacity="0.4" d="M45.2082 19.7109V12.9167C45.2082 7.75002 42.6248 5.16669 37.4582 5.16669H24.5415C19.3748 5.16669 16.7915 7.75002 16.7915 12.9167V19.53" stroke="#F3601E" stroke-width="2" stroke-linecap="round" stroke-linejoin="round"/>
<path opacity="0.4" d="M32.6276 28.3909L34.1001 30.69C34.3326 31.0517 34.8493 31.4134 35.2368 31.5167L37.8718 32.1884C39.4993 32.6017 39.9384 33.9967 38.8793 35.2884L37.1484 37.3809C36.8901 37.7167 36.6834 38.3109 36.7093 38.7242L36.8643 41.4367C36.9676 43.1159 35.7793 43.9684 34.2293 43.3484L31.6976 42.3409C31.3101 42.1859 30.6643 42.1859 30.2768 42.3409L27.7451 43.3484C26.1951 43.9684 25.0068 43.09 25.1101 41.4367L25.2651 38.7242C25.2909 38.3109 25.0842 37.6909 24.8259 37.3809L23.0951 35.2884C22.0359 33.9967 22.4751 32.6017 24.1026 32.1884L26.7376 31.5167C27.1509 31.4134 27.6676 31.0259 27.8743 30.69L29.3467 28.3909C30.2768 26.9959 31.7234 26.9959 32.6276 28.3909Z" stroke="#F3601E" stroke-width="2" stroke-linecap="round" stroke-linejoin="round"/>
</svg>
