<svg width="62" height="62" viewBox="0 0 62 62" fill="none" xmlns="http://www.w3.org/2000/svg">
<path d="M43.9165 25.8334H49.0832C54.2498 25.8334 56.8332 23.25 56.8332 18.0834V12.9167C56.8332 7.75002 54.2498 5.16669 49.0832 5.16669H43.9165C38.7498 5.16669 36.1665 7.75002 36.1665 12.9167V18.0834C36.1665 23.25 38.7498 25.8334 43.9165 25.8334Z" stroke="#F3601E" stroke-width="2" stroke-miterlimit="10" stroke-linecap="round" stroke-linejoin="round"/>
<path d="M12.9165 56.8334H18.0832C23.2498 56.8334 25.8332 54.25 25.8332 49.0834V43.9167C25.8332 38.75 23.2498 36.1667 18.0832 36.1667H12.9165C7.74984 36.1667 5.1665 38.75 5.1665 43.9167V49.0834C5.1665 54.25 7.74984 56.8334 12.9165 56.8334Z" stroke="#F3601E" stroke-width="2" stroke-miterlimit="10" stroke-linecap="round" stroke-linejoin="round"/>
<path opacity="0.34" d="M15.4998 25.8334C21.2068 25.8334 25.8332 21.207 25.8332 15.5C25.8332 9.79308 21.2068 5.16669 15.4998 5.16669C9.79289 5.16669 5.1665 9.79308 5.1665 15.5C5.1665 21.207 9.79289 25.8334 15.4998 25.8334Z" stroke="#F3601E" stroke-width="2" stroke-miterlimit="10" stroke-linecap="round" stroke-linejoin="round"/>
<path opacity="0.34" d="M46.4998 56.8334C52.2068 56.8334 56.8332 52.207 56.8332 46.5C56.8332 40.7931 52.2068 36.1667 46.4998 36.1667C40.7929 36.1667 36.1665 40.7931 36.1665 46.5C36.1665 52.207 40.7929 56.8334 46.4998 56.8334Z" stroke="#F3601E" stroke-width="2" stroke-miterlimit="10" stroke-linecap="round" stroke-linejoin="round"/>
</svg>
