<svg width="46" height="36" viewBox="0 0 46 36" fill="none" xmlns="http://www.w3.org/2000/svg">
<path opacity="0.4" d="M31.1051 14.406C31.1051 13.9566 30.8151 13.5651 30.3878 13.3911C27.519 12.2458 25.2757 10.129 24.055 7.40333C23.8718 6.98283 23.4446 6.72186 22.9715 6.72186C22.4984 6.72186 22.0864 6.98283 21.888 7.40333C20.6825 10.1145 18.4393 12.2313 15.5856 13.3767C15.1583 13.5507 14.8684 13.9421 14.8684 14.3915C14.8684 14.841 15.1431 15.2324 15.5704 15.4209C18.3172 16.5663 20.6062 18.7701 21.8728 21.4813C22.0559 21.8872 22.4832 22.1482 22.9409 22.1482C23.3988 22.1482 23.8261 21.8872 24.0092 21.4668C25.1994 18.8425 27.5342 16.6388 30.3878 15.4355C30.8304 15.247 31.1051 14.841 31.1051 14.406ZM22.9409 20.3504C21.5828 17.7697 19.3701 15.6529 16.7454 14.406C19.4617 13.1592 21.6439 11.1004 22.9562 8.51968C24.2838 11.1149 26.466 13.1882 29.2128 14.4206C26.4965 15.7254 24.2533 17.8421 22.9409 20.3504Z" fill="#066AC9"/>
<path d="M30.2798 25.8739C30.4171 25.9174 30.6003 25.9755 30.8291 25.9609C31.1954 25.9465 31.5311 25.8015 31.7905 25.555C32.0652 25.294 32.2178 24.946 32.2026 24.5836C32.172 22.2928 33.698 20.2921 35.987 19.6107C36.1396 19.5672 36.3075 19.4946 36.4296 19.3932C36.7348 19.1757 36.9331 18.8567 36.9789 18.5233C37.04 18.1608 36.9484 17.7983 36.7195 17.4939C35.2851 15.6525 35.2698 13.1878 36.7042 11.3755L36.8874 11.1726L36.9636 10.9551C37.0858 10.6071 37.04 10.2302 36.8721 9.92571C36.689 9.59221 36.3838 9.34576 36.0328 9.24425C33.7438 8.54833 32.233 6.56207 32.2483 4.2858C32.2483 4.11182 32.2178 3.95234 32.172 3.80735C32.0499 3.47389 31.7905 3.19842 31.4395 3.02444C31.0886 2.86496 30.7223 2.85046 30.3713 2.96645C29.8067 3.15493 29.2268 3.24192 28.6317 3.24192C26.8768 3.24192 25.2287 2.43001 24.2216 1.08165C24.1148 0.951167 23.9927 0.835176 23.8858 0.762687C23.2449 0.327732 22.3446 0.472717 21.8868 1.08165C20.8796 2.4445 19.2315 3.24192 17.4767 3.24192C16.8815 3.24192 16.3017 3.15493 15.7522 2.96645C15.264 2.80696 14.6383 2.92295 14.272 3.29991C13.9974 3.56088 13.8447 3.90884 13.86 4.27131C13.8905 6.56207 12.3645 8.54833 10.0908 9.22979C9.92295 9.27329 9.78561 9.34576 9.63301 9.44727C9.00735 9.89668 8.87 10.7521 9.34306 11.3611C10.7775 13.2024 10.7775 15.6671 9.34306 17.5084C9.2515 17.6243 9.17521 17.7693 9.12943 17.8998C9.0226 18.2478 9.05313 18.5958 9.23625 18.9437C9.41937 19.2627 9.72457 19.5092 10.0755 19.6107C12.3645 20.3066 13.8753 22.3074 13.8447 24.5546C13.8295 24.7286 13.86 24.8881 13.9211 25.0475C14.0432 25.381 14.3026 25.6565 14.6536 25.8305C15.0045 25.99 15.3708 26.0044 15.7217 25.8885C16.3017 25.7 16.8968 25.613 17.4919 25.613C19.2621 25.613 20.8491 26.4104 21.8868 27.7877C21.9783 27.9038 22.1004 28.0197 22.2225 28.1067C22.4667 28.2807 22.7566 28.3677 23.0466 28.3677C23.1229 28.3677 23.2144 28.3677 23.2907 28.3532C23.6722 28.2952 24.0079 28.0922 24.2216 27.8023C25.5339 25.9174 27.9908 25.1491 30.2798 25.8739ZM23.0008 26.9758C21.7189 25.2505 19.6283 24.2211 17.4156 24.2211C16.6678 24.2211 15.9201 24.3371 15.2182 24.5981C15.264 21.7129 13.3259 19.1757 10.4418 18.3348C12.2577 16.0005 12.2577 12.8689 10.4265 10.5781C13.3259 9.7227 15.264 7.2145 15.2487 4.3148C15.9354 4.53228 16.6678 4.64826 17.4003 4.64826C19.6283 4.64826 21.7189 3.61887 22.955 1.89356C24.2368 3.61887 26.3427 4.64826 28.5707 4.64826C29.3184 4.64826 30.0661 4.53228 30.7376 4.2858C30.707 7.14197 32.6145 9.65023 35.4834 10.5491C33.698 12.8689 33.698 15.957 35.4834 18.2913C32.5993 19.1757 30.6765 21.6984 30.7376 24.5546H30.7223C27.8535 23.6267 24.7099 24.5981 23.0008 26.9758Z" fill="#066AC9"/>
<path d="M18.2388 27.7158C17.9031 27.5128 17.4453 27.5998 17.2317 27.9187L14.2563 32.2436C13.9871 32.635 13.3976 32.5973 13.1804 32.1749L11.8669 29.621C11.7596 29.4125 11.5451 29.2811 11.3106 29.2802L8.79161 29.2713C8.2869 29.2695 7.99034 28.7033 8.27632 28.2874L11.3413 23.8302C11.5703 23.5112 11.4634 23.0762 11.1277 22.8733C10.792 22.6558 10.3342 22.7573 10.1205 23.0762L5.57694 29.6778C5.29055 30.0939 5.58762 30.6606 6.09276 30.6619L10.4099 30.6725C10.6446 30.6731 10.8594 30.8045 10.9668 31.0131L13.0117 34.9868C13.2292 35.4094 13.8191 35.4466 14.088 35.0548L18.4678 28.6726C18.6814 28.3537 18.5746 27.9187 18.2388 27.7158Z" fill="#066AC9"/>
<path d="M35.8502 23.0621C35.6213 22.7432 35.1788 22.6562 34.843 22.8592C34.5073 23.0767 34.4158 23.4971 34.6294 23.8161L37.7085 28.2874C37.9949 28.7033 37.6984 29.2699 37.1935 29.2717L34.6754 29.2806C34.4409 29.2815 34.2264 29.4129 34.1191 29.6214L32.8053 32.176C32.5881 32.5983 31.999 32.6361 31.7296 32.2451L28.7391 27.9047C28.5102 27.5857 28.0676 27.4987 27.7319 27.7016C27.3962 27.9191 27.3046 28.3396 27.5183 28.6585L31.9131 35.0559C32.1822 35.4476 32.7718 35.4102 32.9892 34.9877L35.0345 31.0136C35.1419 30.8049 35.3567 30.6735 35.5914 30.6729L39.9059 30.6623C40.4115 30.661 40.7085 30.0932 40.421 29.6772L35.8502 23.0621Z" fill="#066AC9"/>
</svg>
