<svg width="62" height="62" viewBox="0 0 62 62" fill="none" xmlns="http://www.w3.org/2000/svg">
<path d="M23.2498 56.8334H38.7498C51.6665 56.8334 56.8332 51.6667 56.8332 38.75V23.25C56.8332 10.3334 51.6665 5.16669 38.7498 5.16669H23.2498C10.3332 5.16669 5.1665 10.3334 5.1665 23.25V38.75C5.1665 51.6667 10.3332 56.8334 23.2498 56.8334Z" stroke="#F3601E" stroke-width="2" stroke-linecap="round" stroke-linejoin="round"/>
<g opacity="0.4">
<path d="M47.4819 39.4475V19.5817C47.4819 17.5925 45.8802 16.1458 43.9169 16.3008H43.8136C40.352 16.585 35.1078 18.3675 32.1628 20.2017L31.8786 20.3826C31.4136 20.6667 30.6127 20.6667 30.1218 20.3826L29.7086 20.1242C26.7894 18.29 21.5452 16.5592 18.0836 16.275C16.1202 16.12 14.5186 17.5925 14.5186 19.5559V39.4475C14.5186 41.0233 15.8102 42.5217 17.386 42.7025L17.851 42.78C21.416 43.245 26.9445 45.0792 30.0961 46.81L30.1735 46.8359C30.6127 47.0942 31.336 47.0942 31.7493 46.8359C34.901 45.0792 40.4552 43.2708 44.046 42.78L44.5886 42.7025C46.1903 42.5217 47.4819 41.0492 47.4819 39.4475Z" stroke="#F3601E" stroke-width="2" stroke-linecap="round" stroke-linejoin="round"/>
<path d="M31 20.925V45.6217" stroke="#F3601E" stroke-width="2" stroke-linecap="round" stroke-linejoin="round"/>
</g>
</svg>
