<svg width="36" height="36" viewBox="0 0 36 36" fill="none" xmlns="http://www.w3.org/2000/svg">
<path opacity="0.4" d="M26.9977 10.7402C26.9077 10.7252 26.8027 10.7252 26.7127 10.7402C24.6427 10.6652 22.9927 8.97019 22.9927 6.87019C22.9927 4.72519 24.7177 3.00018 26.8627 3.00018C29.0077 3.00018 30.7327 4.74019 30.7327 6.87019C30.7177 8.97019 29.0677 10.6652 26.9977 10.7402Z" stroke="#066AC9" stroke-width="1.25611" stroke-linecap="round" stroke-linejoin="round"/>
<path opacity="0.4" d="M25.4527 21.6599C27.5077 22.0049 29.7727 21.6449 31.3627 20.5799C33.4777 19.1699 33.4777 16.8599 31.3627 15.4499C29.7577 14.3849 27.4627 14.0249 25.4077 14.3849" stroke="#066AC9" stroke-width="1.25611" stroke-linecap="round" stroke-linejoin="round"/>
<path opacity="0.4" d="M8.95033 10.7402C9.04033 10.7252 9.14533 10.7252 9.23533 10.7402C11.3053 10.6652 12.9553 8.97019 12.9553 6.87019C12.9553 4.72519 11.2303 3.00018 9.08534 3.00018C6.94033 3.00018 5.21533 4.74019 5.21533 6.87019C5.23033 8.97019 6.88033 10.6652 8.95033 10.7402Z" stroke="#066AC9" stroke-width="1.25611" stroke-linecap="round" stroke-linejoin="round"/>
<path opacity="0.4" d="M10.4965 21.6599C8.44149 22.0049 6.17649 21.6449 4.58649 20.5799C2.47149 19.1699 2.47149 16.8599 4.58649 15.4499C6.19149 14.3849 8.48649 14.0249 10.5415 14.3849" stroke="#066AC9" stroke-width="1.25611" stroke-linecap="round" stroke-linejoin="round"/>
<path d="M18.0001 21.9451C17.9101 21.9301 17.8051 21.9301 17.7151 21.9451C15.6451 21.8701 13.9951 20.1751 13.9951 18.0751C13.9951 15.9301 15.7201 14.2051 17.8651 14.2051C20.0101 14.2051 21.7351 15.9451 21.7351 18.0751C21.7201 20.1751 20.0701 21.8851 18.0001 21.9451Z" stroke="#066AC9" stroke-width="1.25611" stroke-linecap="round" stroke-linejoin="round"/>
<path d="M13.6351 26.6703C11.5201 28.0803 11.5201 30.3903 13.6351 31.8003C16.0351 33.4053 19.9651 33.4053 22.3651 31.8003C24.4801 30.3903 24.4801 28.0803 22.3651 26.6703C19.9801 25.0803 16.0351 25.0803 13.6351 26.6703Z" stroke="#066AC9" stroke-width="1.25611" stroke-linecap="round" stroke-linejoin="round"/>
</svg>
