<svg width="62" height="62" viewBox="0 0 62 62" fill="none" xmlns="http://www.w3.org/2000/svg">
<path opacity="0.4" d="M36.8429 41.3283H23.9263" stroke="#F3601E" stroke-width="2" stroke-miterlimit="10" stroke-linecap="round" stroke-linejoin="round"/>
<path d="M32.7051 6.5052L32.6276 6.68604L25.136 24.0719H17.7735C16.0168 24.0719 14.3376 24.4335 12.8135 25.0794L17.3343 14.281L17.4376 14.0227L17.6185 13.6094C17.6701 13.4544 17.7218 13.2994 17.7993 13.1702C21.1835 5.3427 25.0068 3.5602 32.7051 6.5052Z" stroke="#F3601E" stroke-width="2" stroke-linecap="round" stroke-linejoin="round"/>
<path d="M46.6291 24.5885C45.4666 24.2269 44.2266 24.0719 42.9866 24.0719H25.1357L32.6274 6.68602L32.7049 6.50519C33.0924 6.63435 33.4541 6.81519 33.8416 6.97019L39.5507 9.37269C42.7282 10.6902 44.9499 12.0594 46.2932 13.7127C46.5516 14.0227 46.7582 14.3069 46.9391 14.6427C47.1716 15.0044 47.3524 15.366 47.4557 15.7535C47.5591 15.986 47.6366 16.2185 47.6882 16.4252C48.3857 18.5952 47.9724 21.256 46.6291 24.5885Z" stroke="#F3601E" stroke-width="2" stroke-linecap="round" stroke-linejoin="round"/>
<path d="M55.5976 36.6791V41.7166C55.5976 42.2333 55.5718 42.75 55.5459 43.2666C55.0551 52.2825 50.0176 56.8291 40.4593 56.8291H20.3093C19.6893 56.8291 19.0693 56.7775 18.4751 56.7C10.2601 56.1575 5.86844 51.7658 5.32594 43.5508C5.24844 42.9566 5.19678 42.3366 5.19678 41.7166V36.6791C5.19678 31.4866 8.34844 27.0174 12.8434 25.0799C14.3934 24.4341 16.0468 24.0724 17.8034 24.0724H43.0168C44.2826 24.0724 45.5226 24.2533 46.6593 24.5891C51.8001 26.165 55.5976 30.9699 55.5976 36.6791Z" stroke="#F3601E" stroke-width="2" stroke-linecap="round" stroke-linejoin="round"/>
<path opacity="0.4" d="M17.334 14.281L12.8132 25.0793C8.31817 27.0168 5.1665 31.486 5.1665 36.6785V29.1093C5.1665 21.7727 10.3848 15.6502 17.334 14.281Z" stroke="#F3601E" stroke-width="2" stroke-linecap="round" stroke-linejoin="round"/>
<path opacity="0.4" d="M55.5897 29.1081V36.6773C55.5897 30.9939 51.818 26.1631 46.6514 24.6131C47.9947 21.2548 48.3822 18.6198 47.7364 16.4239C47.6847 16.1914 47.6072 15.9589 47.5039 15.7523C52.3089 18.2323 55.5897 23.3214 55.5897 29.1081Z" stroke="#F3601E" stroke-width="2" stroke-linecap="round" stroke-linejoin="round"/>
</svg>
