<svg width="41" height="41" viewBox="0 0 41 41" fill="none" xmlns="http://www.w3.org/2000/svg">
<rect width="41" height="41" rx="7.64444" fill="#FFEAD1"/>
<path d="M31.096 19.6336C31.0954 18.8041 30.9999 17.9774 30.8112 17.1696L30.8048 17.144C30.2213 14.7263 28.8397 12.5759 26.8832 11.0403C24.9266 9.50475 22.5095 8.67376 20.0224 8.68161L20.0096 8.68001H19.9792C17.489 8.66184 15.0663 9.48916 13.1074 11.0267C11.1485 12.5642 9.7692 14.7208 9.19515 17.144L9.18875 17.1696C8.73379 19.1342 8.82789 21.1861 9.46075 23.1008C9.55777 23.3972 9.71422 23.6707 9.92056 23.9045C10.1269 24.1384 10.3788 24.3276 10.6608 24.4608C10.9849 24.6182 11.3404 24.7002 11.7008 24.7008C11.9601 24.7007 12.2178 24.6591 12.464 24.5776L13.4096 24.2512C13.9248 24.082 14.3659 23.7401 14.6583 23.2833C14.9507 22.8265 15.0764 22.2828 15.0144 21.744L14.6688 18.8C14.5972 18.2545 14.3409 17.75 13.9427 17.3704C13.5445 16.9908 13.0282 16.759 12.48 16.7136L11.0112 16.6112C11.6499 14.7678 12.8456 13.1683 14.433 12.0341C16.0204 10.8999 17.921 10.2869 19.872 10.28H20.0096C21.9841 10.2482 23.9177 10.8441 25.5318 11.982C27.1458 13.1198 28.3569 14.7408 28.9904 16.6112L27.5104 16.7152C26.9623 16.7627 26.447 16.9964 26.0502 17.3775C25.6535 17.7585 25.3991 18.2639 25.3296 18.8096L24.9856 21.7536C24.9247 22.2899 25.0502 22.8309 25.3409 23.2856C25.6317 23.7404 26.07 24.0813 26.5824 24.2512L27.5472 24.584C27.6938 24.6223 27.8439 24.6464 27.9952 24.656C27.2647 25.8088 26.2891 26.7863 25.1378 27.5192C23.9866 28.252 22.6879 28.7221 21.3344 28.896C21.1975 28.7021 21.0167 28.5433 20.8068 28.4326C20.5968 28.3219 20.3637 28.2625 20.1264 28.2592C19.8532 28.2554 19.584 28.3247 19.3466 28.46C19.1093 28.5953 18.9125 28.7916 18.7766 29.0286C18.6407 29.2656 18.5707 29.5347 18.5738 29.8079C18.577 30.081 18.6531 30.3484 18.7944 30.5822C18.9357 30.816 19.137 31.0078 19.3774 31.1376C19.6178 31.2674 19.8885 31.3305 20.1615 31.3204C20.4345 31.3103 20.6999 31.2274 20.93 31.0801C21.1602 30.9329 21.3467 30.7268 21.4704 30.4832C23.4895 30.2398 25.4002 29.4357 26.9857 28.162C28.5713 26.8883 29.7685 25.196 30.4415 23.2768C30.4671 23.2176 30.5168 23.1728 30.5376 23.1104C30.9123 21.9903 31.1009 20.8163 31.096 19.6352V19.6336ZM12.3568 18.3056C12.5378 18.3207 12.7083 18.3971 12.8401 18.5222C12.9719 18.6473 13.0571 18.8136 13.0816 18.9936L13.424 21.9216C13.4435 22.0976 13.4017 22.275 13.3055 22.4238C13.2092 22.5725 13.0646 22.6833 12.896 22.7376L11.9552 23.0608C11.7568 23.1244 11.5417 23.1101 11.3536 23.0208C11.2652 22.9796 11.1862 22.9208 11.1215 22.8478C11.0569 22.7749 11.0079 22.6895 10.9776 22.5968C10.5096 21.1757 10.3867 19.6636 10.6192 18.1856L12.3568 18.3056ZM28.6448 23.0208C28.4613 23.1098 28.2508 23.1258 28.056 23.0656L27.096 22.7344C26.9301 22.6801 26.7879 22.5706 26.6929 22.4242C26.598 22.2777 26.5562 22.1032 26.5744 21.9296L26.9184 19C26.9412 18.8205 27.0244 18.6541 27.1544 18.5281C27.2844 18.4022 27.4534 18.3243 27.6336 18.3072L29.3808 18.1856C29.6079 19.6216 29.4951 21.0908 29.0512 22.4752C29.0464 22.4864 29.0368 22.4944 29.0336 22.5072C29.0048 22.5952 28.96 22.6736 28.928 22.7632C28.859 22.8725 28.7617 22.9609 28.6464 23.0192L28.6448 23.0208ZM20 15.4544C19.7912 15.4557 19.5902 15.3753 19.44 15.2304C19.3639 15.155 19.3035 15.0653 19.2624 14.9664C19.2212 14.8675 19.2 14.7615 19.2 14.6544C19.1978 14.5495 19.2197 14.4455 19.264 14.3504C19.3014 14.2523 19.3618 14.1645 19.44 14.0944C19.5914 13.9515 19.7917 13.8719 20 13.8719C20.2082 13.8719 20.4085 13.9515 20.56 14.0944C20.637 14.1657 20.6981 14.2524 20.7395 14.3489C20.7808 14.4454 20.8014 14.5495 20.8 14.6544C20.7999 14.7615 20.7786 14.8675 20.7374 14.9664C20.6962 15.0652 20.6359 15.1549 20.56 15.2304C20.4097 15.3753 20.2087 15.4557 20 15.4544ZM17.36 14.0944C17.437 14.1657 17.4981 14.2524 17.5395 14.3489C17.5808 14.4454 17.6014 14.5495 17.6 14.6544C17.5999 14.7615 17.5786 14.8675 17.5374 14.9664C17.4962 15.0652 17.4359 15.1549 17.36 15.2304C17.2097 15.3753 17.0087 15.4557 16.8 15.4544C16.6949 15.4584 16.5905 15.4364 16.496 15.3904C16.3999 15.3564 16.3126 15.3018 16.24 15.2304C16.1639 15.155 16.1035 15.0653 16.0624 14.9664C16.0212 14.8675 16 14.7615 16 14.6544C15.9985 14.5495 16.0191 14.4454 16.0604 14.3489C16.1018 14.2524 16.1629 14.1657 16.24 14.0944C16.3914 13.9515 16.5917 13.8719 16.8 13.8719C17.0082 13.8719 17.2085 13.9515 17.36 14.0944ZM22.64 15.2304C22.558 15.1571 22.4972 15.0632 22.464 14.9584C22.418 14.8639 22.396 14.7595 22.4 14.6544C22.3985 14.5495 22.4191 14.4454 22.4604 14.3489C22.5018 14.2524 22.5629 14.1657 22.64 14.0944C22.7895 13.9478 22.9905 13.8657 23.2 13.8657C23.4094 13.8657 23.6104 13.9478 23.76 14.0944C23.837 14.1657 23.8981 14.2524 23.9395 14.3489C23.9808 14.4454 24.0014 14.5495 24 14.6544C24.0035 14.7594 23.9816 14.8637 23.936 14.9584C23.9026 15.0632 23.8418 15.1571 23.76 15.2304C23.6089 15.374 23.4084 15.4541 23.2 15.4541C22.9915 15.4541 22.791 15.374 22.64 15.2304Z" fill="black"/>
</svg>
