<svg width="26" height="26" viewBox="0 0 26 26" fill="none" xmlns="http://www.w3.org/2000/svg">
<path d="M19.8191 10.1439L19.462 19.8939C19.4316 20.7289 19.0417 21.5204 18.3751 22.1003C17.7084 22.6802 16.8176 23.0029 15.8915 23H9.10759C8.18214 23.003 7.29177 22.6807 6.62524 22.1014C5.95871 21.5222 5.56842 20.7316 5.5371 19.8971L5.18005 10.1439C5.17223 9.93036 5.25879 9.72273 5.42066 9.56672C5.58254 9.41071 5.80648 9.31911 6.04321 9.31206C6.27995 9.30501 6.5101 9.3831 6.68302 9.52914C6.85594 9.67518 6.95748 9.87721 6.96529 10.0908L7.32234 19.8431C7.34012 20.2595 7.53603 20.6534 7.86892 20.9422C8.20181 21.2309 8.64578 21.3921 9.10759 21.3918H15.8915C16.3539 21.392 16.7984 21.2304 17.1314 20.941C17.4644 20.6515 17.6599 20.2568 17.6768 19.8399L18.0338 10.0908C18.0416 9.87721 18.1432 9.67518 18.3161 9.52914C18.489 9.3831 18.7192 9.30501 18.9559 9.31206C19.1926 9.31911 19.4166 9.41071 19.5784 9.56672C19.7403 9.72273 19.8269 9.93036 19.8191 10.1439ZM21 6.89934C21 7.11292 20.906 7.31776 20.7386 7.46878C20.5712 7.61981 20.3441 7.70465 20.1074 7.70465H4.89262C4.65588 7.70465 4.42884 7.61981 4.26144 7.46878C4.09404 7.31776 4 7.11292 4 6.89934C4 6.68575 4.09404 6.48092 4.26144 6.3299C4.42884 6.17887 4.65588 6.09402 4.89262 6.09402H7.65975C7.94258 6.09471 8.21557 6.00044 8.42561 5.82956C8.63564 5.65867 8.76769 5.4234 8.79606 5.16952C8.86193 4.57398 9.1712 4.0219 9.6636 3.62083C10.156 3.21977 10.7963 2.99845 11.4596 3.00001H13.5395C14.2028 2.99845 14.8431 3.21977 15.3355 3.62083C15.8279 4.0219 16.1372 4.57398 16.203 5.16952C16.2314 5.4234 16.3635 5.65867 16.5735 5.82956C16.7835 6.00044 17.0565 6.09471 17.3394 6.09402H20.1065C20.3432 6.09402 20.5703 6.17887 20.7377 6.3299C20.9051 6.48092 21 6.68575 21 6.89934ZM10.3457 6.09402H14.6552C14.5379 5.85222 14.4612 5.596 14.4276 5.33381C14.4055 5.1353 14.3025 4.95127 14.1386 4.81737C13.9747 4.68347 13.7615 4.60922 13.5404 4.60903H11.4605C11.2394 4.60922 11.0262 4.68347 10.8623 4.81737C10.6984 4.95127 10.5954 5.1353 10.5733 5.33381C10.5394 5.59605 10.4633 5.85227 10.3457 6.09402ZM11.2445 18.2953V11.4381C11.2445 11.2245 11.1505 11.0197 10.9831 10.8686C10.8157 10.7176 10.5886 10.6328 10.3519 10.6328C10.1152 10.6328 9.88812 10.7176 9.72072 10.8686C9.55332 11.0197 9.45928 11.2245 9.45928 11.4381V18.2986C9.45928 18.5121 9.55332 18.717 9.72072 18.868C9.88812 19.019 10.1152 19.1039 10.3519 19.1039C10.5886 19.1039 10.8157 19.019 10.9831 18.868C11.1505 18.717 11.2445 18.5121 11.2445 18.2986V18.2953ZM15.5416 18.2953V11.4381C15.5416 11.2245 15.4476 11.0197 15.2802 10.8686C15.1128 10.7176 14.8857 10.6328 14.649 10.6328C14.4123 10.6328 14.1852 10.7176 14.0178 10.8686C13.8504 11.0197 13.7564 11.2245 13.7564 11.4381V18.2986C13.7564 18.5121 13.8504 18.717 14.0178 18.868C14.1852 19.019 14.4123 19.1039 14.649 19.1039C14.8857 19.1039 15.1128 19.019 15.2802 18.868C15.4476 18.717 15.5416 18.5121 15.5416 18.2986V18.2953Z" fill="#E33E3E"/>
</svg>
