<svg width="15" height="15" viewBox="0 0 15 15" fill="none" xmlns="http://www.w3.org/2000/svg">
<path d="M11.5625 7.90625V10.2187C11.5625 12.1687 9.74375 13.75 7.5 13.75C5.25625 13.75 3.4375 12.1687 3.4375 10.2187V7.90625C3.4375 9.85625 5.25625 11.25 7.5 11.25C9.74375 11.25 11.5625 9.85625 11.5625 7.90625Z" stroke="#181A1F" stroke-width="1.2" stroke-linecap="round" stroke-linejoin="round"/>
<path d="M11.5625 4.78125C11.5625 5.35 11.4062 5.875 11.1312 6.325C10.4625 7.425 9.0875 8.125 7.5 8.125C5.9125 8.125 4.5375 7.425 3.86875 6.325C3.59375 5.875 3.4375 5.35 3.4375 4.78125C3.4375 3.80625 3.89375 2.925 4.625 2.2875C5.3625 1.64375 6.375 1.25 7.5 1.25C8.625 1.25 9.6375 1.64375 10.375 2.28125C11.1063 2.925 11.5625 3.80625 11.5625 4.78125Z" stroke="#181A1F" stroke-width="1.2" stroke-linecap="round" stroke-linejoin="round"/>
<path d="M11.5625 4.78125V7.90625C11.5625 9.85625 9.74375 11.25 7.5 11.25C5.25625 11.25 3.4375 9.85625 3.4375 7.90625V4.78125C3.4375 2.83125 5.25625 1.25 7.5 1.25C8.625 1.25 9.6375 1.64375 10.375 2.28125C11.1063 2.925 11.5625 3.80625 11.5625 4.78125Z" stroke="#181A1F" stroke-width="1.2" stroke-linecap="round" stroke-linejoin="round"/>
</svg>
