<svg width="14" height="14" viewBox="0 0 14 14" fill="none" xmlns="http://www.w3.org/2000/svg">
<path d="M7 1.16663C3.78583 1.16663 1.16667 3.78579 1.16667 6.99996C1.16667 10.2141 3.78583 12.8333 7 12.8333C10.2142 12.8333 12.8333 10.2141 12.8333 6.99996C12.8333 3.78579 10.2142 1.16663 7 1.16663ZM6.5625 4.66663C6.5625 4.42746 6.76083 4.22913 7 4.22913C7.23917 4.22913 7.4375 4.42746 7.4375 4.66663V7.58329C7.4375 7.82246 7.23917 8.02079 7 8.02079C6.76083 8.02079 6.5625 7.82246 6.5625 7.58329V4.66663ZM7.53667 9.55496C7.5075 9.63079 7.46667 9.68913 7.41417 9.74746C7.35583 9.79996 7.29167 9.84079 7.22167 9.86996C7.15167 9.89913 7.07583 9.91663 7 9.91663C6.92417 9.91663 6.84833 9.89913 6.77833 9.86996C6.70833 9.84079 6.64417 9.79996 6.58583 9.74746C6.53333 9.68913 6.4925 9.63079 6.46333 9.55496C6.43417 9.48496 6.41667 9.40913 6.41667 9.33329C6.41667 9.25746 6.43417 9.18163 6.46333 9.11163C6.4925 9.04163 6.53333 8.97746 6.58583 8.91913C6.64417 8.86663 6.70833 8.82579 6.77833 8.79663C6.91833 8.73829 7.08167 8.73829 7.22167 8.79663C7.29167 8.82579 7.35583 8.86663 7.41417 8.91913C7.46667 8.97746 7.5075 9.04163 7.53667 9.11163C7.56583 9.18163 7.58333 9.25746 7.58333 9.33329C7.58333 9.40913 7.56583 9.48496 7.53667 9.55496Z" fill="#E3080E"/>
</svg>
