<svg width="15" height="15" viewBox="0 0 15 15" fill="none" xmlns="http://www.w3.org/2000/svg">
<path d="M13.75 5.625V9.375C13.75 9.5125 13.75 9.65002 13.7375 9.78127C13.225 9.15002 12.4437 8.75 11.5625 8.75C10.9 8.75 10.2875 8.98124 9.80625 9.36874C9.15625 9.88124 8.75 10.675 8.75 11.5625C8.75 12.4437 9.14999 13.225 9.78124 13.7375C9.64999 13.75 9.5125 13.75 9.375 13.75H5.625C2.5 13.75 1.25 12.5 1.25 9.375V5.625C1.25 2.5 2.5 1.25 5.625 1.25H9.375C12.5 1.25 13.75 2.5 13.75 5.625Z" stroke="#181A1F" stroke-width="1.2622" stroke-linecap="round" stroke-linejoin="round"/>
<path d="M1.57501 4.44373H13.425" stroke="#181A1F" stroke-width="1.2622" stroke-linecap="round" stroke-linejoin="round"/>
<path d="M5.32501 1.31873V4.35622" stroke="#181A1F" stroke-width="1.2622" stroke-linecap="round" stroke-linejoin="round"/>
<path d="M9.67499 1.31873V4.075" stroke="#181A1F" stroke-width="1.2622" stroke-linecap="round" stroke-linejoin="round"/>
<path d="M14.375 11.5625C14.375 12.4063 14 13.1563 13.4187 13.675C12.9187 14.1063 12.275 14.375 11.5625 14.375C10.8875 14.375 10.2625 14.1375 9.78124 13.7375C9.14999 13.225 8.74999 12.4437 8.74999 11.5625C8.74999 10.675 9.15625 9.88124 9.80625 9.36874C10.2875 8.98124 10.9 8.75 11.5625 8.75C12.4437 8.75 13.225 9.15002 13.7375 9.78127C14.1375 10.2625 14.375 10.8875 14.375 11.5625Z" stroke="#181A1F" stroke-width="1.2622" stroke-miterlimit="10" stroke-linecap="round" stroke-linejoin="round"/>
<path d="M11.7375 10.6813V11.7375L10.8625 12.2625" stroke="#181A1F" stroke-width="1.2622" stroke-miterlimit="10" stroke-linecap="round" stroke-linejoin="round"/>
</svg>
