<svg width="18" height="16" viewBox="0 0 18 16" fill="none" xmlns="http://www.w3.org/2000/svg">
<path d="M5.65882 4.55715L4.54364 3.44205C5.63092 2.57126 6.98141 2.01543 8.45696 1.91273V3.78414V3.88414H8.55696H9.35243H9.45243V3.78414V1.91273C10.928 2.01542 12.2785 2.57127 13.3658 3.44208L12.2989 4.50886L12.2281 4.57956L12.2989 4.65028L12.8613 5.2128L12.932 5.28351L13.0027 5.21281L14.0978 4.11789C15.0943 5.17677 15.7669 6.54313 15.9581 8.05923H14.3974H14.2974V8.15923V8.9547V9.0547H14.3974H16.0132C15.9897 10.6786 15.4175 12.1691 14.4731 13.3505L13.1911 12.0685L13.1204 11.9978L13.0497 12.0685L12.4872 12.631L12.4165 12.7017L12.4872 12.7724L13.7986 14.0838L13.7948 14.0876L13.864 14.1591L14.4174 14.7306L14.487 14.8024L14.5588 14.7329C16.0694 13.2701 17.0094 11.2196 17.0094 8.9504C17.0094 4.50405 13.4029 0.9 8.9547 0.9C4.50646 0.9 0.9 4.50405 0.9 8.9504C0.9 11.1594 1.79081 13.1613 3.23173 14.6154L3.30212 14.6864L3.37315 14.616L3.93818 14.0561L4.00953 13.9854L4.00169 13.9775L5.12633 12.8529L5.19705 12.7822L5.12633 12.7115L4.56381 12.149L4.4931 12.0783L4.42239 12.149L3.3418 13.2297C2.4538 12.0682 1.91895 10.6238 1.89622 9.0547H3.40737H3.50737V8.9547V8.15923V8.05923H3.40737H1.95125C2.14245 6.54313 2.81511 5.17673 3.81165 4.11785L4.95492 5.26105L5.02564 5.33175L5.09634 5.26105L5.65882 4.69857L5.72953 4.62786L5.65882 4.55715Z" fill="#E13D3D" stroke="#E13D3D" stroke-width="0.2"/>
<path fill-rule="evenodd" clip-rule="evenodd" d="M5.98528 8.80327L8.00191 14.0029C8.07242 14.1425 8.19145 14.2516 8.33668 14.3096L9.4446 14.6711C9.92887 14.6084 10.0995 14.5062 10.3208 14.1462L10.5247 12.9987C10.542 12.8433 10.502 12.6869 10.4121 12.5589L6.77833 8.33657C6.32094 7.68473 5.62634 8.0925 5.98528 8.80327ZM9.7209 12.9752L7.41926 10.3008L8.69484 13.5898L9.50767 13.855C9.53929 13.8481 9.55771 13.8425 9.56723 13.8392L9.7209 12.9752ZM9.55902 13.8478C9.55902 13.8478 9.55994 13.8468 9.5617 13.8453C9.55987 13.8472 9.55902 13.8478 9.55902 13.8478ZM6.10059 8.76094L6.09962 8.76009C6.09962 8.76009 6.09994 8.76031 6.10059 8.76094Z" fill="#E13D3D"/>
</svg>
