<svg width="18" height="16" viewBox="0 0 18 16" fill="none" xmlns="http://www.w3.org/2000/svg">
<path d="M5.65882 4.55715L4.54364 3.44205C5.63092 2.57126 6.98141 2.01543 8.45696 1.91273V3.78414V3.88414H8.55696H9.35243H9.45243V3.78414V1.91273C10.928 2.01542 12.2785 2.57127 13.3658 3.44208L12.2989 4.50886L12.2281 4.57956L12.2989 4.65028L12.8613 5.2128L12.932 5.28351L13.0027 5.21281L14.0978 4.11789C15.0943 5.17677 15.7669 6.54313 15.9581 8.05923H14.3974H14.2974V8.15923V8.9547V9.0547H14.3974H16.0132C15.9897 10.6786 15.4175 12.1691 14.4731 13.3505L13.1911 12.0685L13.1204 11.9978L13.0497 12.0685L12.4872 12.631L12.4165 12.7017L12.4872 12.7724L13.7986 14.0838L13.7948 14.0876L13.864 14.1591L14.4174 14.7306L14.487 14.8024L14.5588 14.7329C16.0694 13.2701 17.0094 11.2196 17.0094 8.9504C17.0094 4.50405 13.4029 0.9 8.9547 0.9C4.50646 0.9 0.9 4.50405 0.9 8.9504C0.9 11.1594 1.79081 13.1613 3.23173 14.6154L3.30212 14.6864L3.37315 14.616L3.93818 14.0561L4.00953 13.9854L4.00169 13.9775L5.12633 12.8529L5.19705 12.7822L5.12633 12.7115L4.56381 12.149L4.4931 12.0783L4.42239 12.149L3.3418 13.2297C2.4538 12.0682 1.91895 10.6238 1.89622 9.0547H3.40737H3.50737V8.9547V8.15923V8.05923H3.40737H1.95125C2.14245 6.54313 2.81511 5.17673 3.81165 4.11785L4.95492 5.26105L5.02564 5.33175L5.09634 5.26105L5.65882 4.69857L5.72953 4.62786L5.65882 4.55715Z" fill="#FF7D43" stroke="#FF7D43" stroke-width="0.2"/>
<path fill-rule="evenodd" clip-rule="evenodd" d="M8.55547 8.11305L7.61299 13.6099C7.60174 13.7659 7.6478 13.9206 7.74254 14.045L8.50714 14.9245C8.95479 15.1196 9.15366 15.1196 9.52856 14.9245L10.2932 14.045C10.3879 13.9206 10.434 13.7659 10.4227 13.6099L9.47563 8.12029C9.41827 7.32605 8.61286 7.31885 8.55547 8.11305ZM9.61579 13.6117L9.01592 10.1346L8.41976 13.6116L8.98073 14.2568C9.01139 14.2672 9.03004 14.2719 9.03991 14.2739L9.61579 13.6117ZM9.02845 14.2771C9.02845 14.2771 9.02977 14.2767 9.03203 14.2763C9.02949 14.277 9.02845 14.2771 9.02845 14.2771ZM8.67614 8.136L8.67574 8.13477C8.67574 8.13477 8.6759 8.13513 8.67614 8.136Z" fill="#FF7D43"/>
</svg>
