<svg width="15" height="15" viewBox="0 0 15 15" fill="none" xmlns="http://www.w3.org/2000/svg">
<path d="M5.41875 8.75H2.5C1.8125 8.75 1.25 9.3125 1.25 10V13.75H5.41875V8.75Z" stroke="#292D32" stroke-width="1.2" stroke-miterlimit="10" stroke-linecap="round" stroke-linejoin="round"/>
<path d="M8.33123 6.25H6.66248C5.97498 6.25 5.41248 6.8125 5.41248 7.5V13.75H9.58123V7.5C9.58123 6.8125 9.02498 6.25 8.33123 6.25Z" stroke="#292D32" stroke-width="1.2" stroke-miterlimit="10" stroke-linecap="round" stroke-linejoin="round"/>
<path d="M12.5 10.625H9.58124V13.75H13.75V11.875C13.75 11.1875 13.1875 10.625 12.5 10.625Z" stroke="#292D32" stroke-width="1.2" stroke-miterlimit="10" stroke-linecap="round" stroke-linejoin="round"/>
<path d="M7.82502 1.29376L8.15627 1.95626C8.20002 2.05001 8.31877 2.13751 8.41877 2.15001L9.01877 2.25001C9.40002 2.31251 9.49377 2.59375 9.21877 2.8625L8.75002 3.33125C8.66877 3.4125 8.62502 3.5625 8.65002 3.66875L8.78127 4.24376C8.88752 4.70001 8.64377 4.87502 8.24377 4.63752L7.68127 4.30627C7.58127 4.24377 7.41252 4.24377 7.31252 4.30627L6.75002 4.63752C6.35002 4.87502 6.10627 4.70001 6.21252 4.24376L6.34377 3.66875C6.36877 3.5625 6.32502 3.40625 6.24377 3.33125L5.78127 2.86875C5.50627 2.59375 5.59377 2.31875 5.98127 2.25625L6.58127 2.15626C6.68127 2.13751 6.80002 2.05002 6.84377 1.96252L7.17502 1.3C7.35627 0.937499 7.64377 0.937512 7.82502 1.29376Z" stroke="#292D32" stroke-width="1.2" stroke-linecap="round" stroke-linejoin="round"/>
</svg>
