<svg width="14" height="16" viewBox="0 0 14 16" fill="none" xmlns="http://www.w3.org/2000/svg">
<path d="M9.8989 0.614746C9.82108 0.614746 9.74645 0.645661 9.69142 0.700691C9.63639 0.75572 9.60547 0.830356 9.60547 0.90818V2.25787C9.60547 2.33569 9.63639 2.41033 9.69142 2.46536C9.74645 2.52039 9.82108 2.5513 9.8989 2.5513C9.97672 2.5513 10.0514 2.52039 10.1064 2.46536C10.1614 2.41033 10.1923 2.33569 10.1923 2.25787V0.90818C10.1923 0.830356 10.1614 0.75572 10.1064 0.700691C10.0514 0.645661 9.97672 0.614746 9.8989 0.614746Z" fill="white"/>
<path d="M3.1489 9.76886C3.09086 9.76886 3.03413 9.78607 2.98588 9.81832C2.93762 9.85056 2.90001 9.89639 2.87781 9.95C2.8556 10.0036 2.84978 10.0626 2.86111 10.1195C2.87243 10.1765 2.90037 10.2287 2.94141 10.2698C2.98245 10.3108 3.03473 10.3388 3.09165 10.3501C3.14857 10.3614 3.20757 10.3556 3.26119 10.3334C3.31481 10.3112 3.36064 10.2736 3.39288 10.2253C3.42513 10.1771 3.44234 10.1203 3.44234 10.0623C3.44234 10.0238 3.43474 9.9856 3.42 9.95C3.40525 9.9144 3.38364 9.88205 3.35639 9.85481C3.32914 9.82756 3.29679 9.80594 3.26119 9.79119C3.22559 9.77644 3.18743 9.76886 3.1489 9.76886Z" fill="white"/>
<path d="M14.0025 9.17839C14.0021 8.86728 13.8783 8.56904 13.6583 8.3491C13.4382 8.12916 13.1399 8.00548 12.8288 8.0052H10.6391C10.9691 7.10958 11.122 6.15836 11.0891 5.20444C11.0879 5.09168 11.0809 4.97906 11.0682 4.86702C11.0644 4.55586 10.9372 4.25895 10.7145 4.0416C10.4918 3.82425 10.1919 3.70426 9.88079 3.70803C9.56964 3.7118 9.27273 3.83902 9.05538 4.06171C8.83803 4.28439 8.71804 4.5843 8.72181 4.89545V5.18888C8.72181 7.04443 6.33947 8.08567 4.54132 8.53359C4.47287 8.37698 4.36036 8.24365 4.2175 8.14984C4.07463 8.05602 3.90757 8.00577 3.73666 8.0052H0.801247C0.723423 8.0052 0.648787 8.03611 0.593758 8.09114C0.538728 8.14617 0.507812 8.22081 0.507812 8.29863V15.3394C0.507812 15.4173 0.538728 15.4919 0.593758 15.5469C0.648787 15.602 0.723423 15.6329 0.801247 15.6329H3.73505C3.90531 15.6328 4.0719 15.5834 4.2147 15.4907C4.3575 15.398 4.47038 15.2659 4.53971 15.1104L4.95438 15.2177C5.91324 15.511 6.91244 15.651 7.915 15.6323H11.0698C11.2821 15.6322 11.4904 15.5745 11.6724 15.4653C11.8545 15.3562 12.0035 15.1996 12.1036 15.0124C12.2036 14.8251 12.251 14.6143 12.2406 14.4022C12.2302 14.1902 12.1624 13.985 12.0445 13.8084C12.2135 13.749 12.3667 13.6518 12.4924 13.5242C12.6181 13.3965 12.7131 13.2419 12.77 13.0721C12.8269 12.9022 12.8443 12.7216 12.8208 12.544C12.7974 12.3664 12.7337 12.1965 12.6346 12.0473C12.8034 11.9878 12.9563 11.8905 13.0817 11.7629C13.2071 11.6352 13.3016 11.4806 13.358 11.3108C13.4144 11.141 13.4313 10.9605 13.4072 10.7832C13.3832 10.6059 13.3189 10.4364 13.2193 10.2878C13.4488 10.2068 13.6474 10.0566 13.7877 9.85784C13.928 9.6591 14.0031 9.42167 14.0025 9.17839ZM4.02848 14.7526C4.02848 14.8304 3.99756 14.905 3.94253 14.9601C3.88751 15.0151 3.81287 15.046 3.73505 15.046H1.09468V8.59153H3.73505C3.81287 8.59153 3.88751 8.62244 3.94253 8.67747C3.99756 8.7325 4.02848 8.80714 4.02848 8.88496V14.7526ZM12.8293 9.76365H11.3622C11.3236 9.76365 11.2855 9.77124 11.2499 9.78599C11.2143 9.80073 11.1819 9.82235 11.1547 9.8496C11.1274 9.87685 11.1058 9.90919 11.0911 9.94479C11.0763 9.9804 11.0687 10.0186 11.0687 10.0571C11.0687 10.0956 11.0763 10.1338 11.0911 10.1694C11.1058 10.205 11.1274 10.2373 11.1547 10.2646C11.1819 10.2918 11.2143 10.3134 11.2499 10.3282C11.2855 10.3429 11.3236 10.3505 11.3622 10.3505H12.2425C12.3981 10.3505 12.5474 10.4124 12.6575 10.5224C12.7675 10.6325 12.8293 10.7817 12.8293 10.9374C12.8293 11.093 12.7675 11.2423 12.6575 11.3524C12.5474 11.4624 12.3981 11.5243 12.2425 11.5243H10.7758C10.698 11.5243 10.6234 11.5552 10.5684 11.6102C10.5133 11.6652 10.4824 11.7399 10.4824 11.8177C10.4824 11.8955 10.5133 11.9702 10.5684 12.0252C10.6234 12.0802 10.698 12.1111 10.7758 12.1111H11.6561C11.8118 12.1111 11.9611 12.173 12.0711 12.283C12.1812 12.3931 12.243 12.5423 12.243 12.698C12.243 12.8536 12.1812 13.0029 12.0711 13.113C11.9611 13.223 11.8118 13.2849 11.6561 13.2849H10.189C10.1112 13.2849 10.0365 13.3158 9.98149 13.3708C9.92646 13.4258 9.89554 13.5005 9.89554 13.5783C9.89554 13.6561 9.92646 13.7308 9.98149 13.7858C10.0365 13.8408 10.1112 13.8717 10.189 13.8717H11.0693C11.2249 13.8717 11.3742 13.9336 11.4843 14.0436C11.5943 14.1537 11.6561 14.3029 11.6561 14.4586C11.6561 14.6142 11.5943 14.7635 11.4843 14.8736C11.3742 14.9836 11.2249 15.0455 11.0693 15.0455H7.91393C6.96131 15.064 6.01184 14.9304 5.10136 14.6496C4.95366 14.6109 4.79148 14.5689 4.61481 14.5235V9.12046C6.73805 8.6146 9.30868 7.38024 9.30868 5.18888V4.89545C9.30868 4.7398 9.37051 4.59053 9.48057 4.48047C9.59062 4.37041 9.7399 4.30858 9.89554 4.30858C10.0512 4.30858 10.2005 4.37041 10.3105 4.48047C10.4206 4.59053 10.4824 4.7398 10.4824 4.89545C10.5651 5.95564 10.4011 7.02059 10.0034 8.00681H9.01524C8.93742 8.00681 8.86278 8.03772 8.80775 8.09275C8.75273 8.14778 8.72181 8.22242 8.72181 8.30024C8.72181 8.37807 8.75273 8.4527 8.80775 8.50773C8.86278 8.56276 8.93742 8.59368 9.01524 8.59368H12.8288C12.9845 8.59368 13.1337 8.65551 13.2438 8.76557C13.3538 8.87562 13.4157 9.0249 13.4157 9.18054C13.4157 9.33619 13.3538 9.48546 13.2438 9.59552C13.1337 9.70558 12.9845 9.76741 12.8288 9.76741L12.8293 9.76365Z" fill="white"/>
<path d="M3.1489 10.9415C3.07108 10.9415 2.99644 10.9724 2.94141 11.0275C2.88638 11.0825 2.85547 11.1571 2.85547 11.235V13.5819C2.85547 13.6597 2.88638 13.7343 2.94141 13.7894C2.99644 13.8444 3.07108 13.8753 3.1489 13.8753C3.22672 13.8753 3.30136 13.8444 3.35639 13.7894C3.41142 13.7343 3.44234 13.6597 3.44234 13.5819V11.235C3.44234 11.1571 3.41142 11.0825 3.35639 11.0275C3.30136 10.9724 3.22672 10.9415 3.1489 10.9415Z" fill="white"/>
<path d="M7.54866 4.31097H6.37546C6.29764 4.31097 6.22301 4.34189 6.16798 4.39692C6.11295 4.45195 6.08203 4.52658 6.08203 4.60441C6.08203 4.68223 6.11295 4.75687 6.16798 4.8119C6.22301 4.86692 6.29764 4.89784 6.37546 4.89784H7.5492C7.62702 4.89784 7.70166 4.86692 7.75668 4.8119C7.81171 4.75687 7.84263 4.68223 7.84263 4.60441C7.84263 4.52658 7.81171 4.45195 7.75668 4.39692C7.70166 4.34189 7.62702 4.31097 7.5492 4.31097H7.54866Z" fill="white"/>
<path d="M13.4159 4.31097H12.2427C12.1648 4.31097 12.0902 4.34189 12.0352 4.39692C11.9801 4.45195 11.9492 4.52658 11.9492 4.60441C11.9492 4.68223 11.9801 4.75687 12.0352 4.8119C12.0902 4.86692 12.1648 4.89784 12.2427 4.89784H13.4164C13.4942 4.89784 13.5689 4.86692 13.6239 4.8119C13.6789 4.75687 13.7098 4.68223 13.7098 4.60441C13.7098 4.52658 13.6789 4.45195 13.6239 4.39692C13.5689 4.34189 13.4937 4.31097 13.4159 4.31097Z" fill="white"/>
<path d="M12.5922 1.90726C12.5372 1.85233 12.4626 1.82147 12.3849 1.82147C12.3071 1.82147 12.2325 1.85233 12.1775 1.90726L11.3476 2.73714C11.2961 2.79281 11.2681 2.86628 11.2696 2.94213C11.271 3.01798 11.3018 3.09032 11.3555 3.14396C11.4091 3.19761 11.4815 3.22839 11.5573 3.22985C11.6332 3.23132 11.7066 3.20335 11.7623 3.15181L12.5917 2.32193C12.6467 2.26699 12.6776 2.19246 12.6777 2.11471C12.6778 2.03696 12.647 1.96235 12.5922 1.90726Z" fill="white"/>
<path d="M8.44375 2.73568L7.61386 1.9058C7.55819 1.85426 7.48473 1.82629 7.40888 1.82775C7.33302 1.82921 7.26068 1.86 7.20704 1.91364C7.15339 1.96729 7.12261 2.03963 7.12115 2.11548C7.11969 2.19133 7.14766 2.2648 7.1992 2.32047L8.02907 3.15035C8.08474 3.20188 8.15822 3.22985 8.23407 3.22839C8.30992 3.22693 8.38226 3.19615 8.4359 3.1425C8.48955 3.08886 8.52033 3.01652 8.52179 2.94067C8.52326 2.86482 8.49528 2.79135 8.44375 2.73568Z" fill="white"/>
</svg>
