<svg width="18" height="15" viewBox="0 0 18 15" fill="none" xmlns="http://www.w3.org/2000/svg">
<path d="M5.65882 4.55715L4.54364 3.44205C5.63092 2.57126 6.98141 2.01543 8.45696 1.91273V3.78414V3.88414H8.55696H9.35243H9.45243V3.78414V1.91273C10.928 2.01542 12.2785 2.57127 13.3658 3.44208L12.2989 4.50886L12.2281 4.57956L12.2989 4.65028L12.8613 5.2128L12.932 5.28351L13.0027 5.21281L14.0978 4.11789C15.0943 5.17677 15.7669 6.54313 15.9581 8.05923H14.3974H14.2974V8.15923V8.9547V9.0547H14.3974H16.0132C15.9897 10.6786 15.4175 12.1691 14.4731 13.3505L13.1911 12.0685L13.1204 11.9978L13.0497 12.0685L12.4872 12.631L12.4165 12.7017L12.4872 12.7724L13.7986 14.0838L13.7948 14.0876L13.864 14.1591L14.4174 14.7306L14.487 14.8024L14.5588 14.7329C16.0694 13.2701 17.0094 11.2196 17.0094 8.9504C17.0094 4.50405 13.4029 0.9 8.9547 0.9C4.50646 0.9 0.9 4.50405 0.9 8.9504C0.9 11.1594 1.79081 13.1613 3.23173 14.6154L3.30212 14.6864L3.37315 14.616L3.93818 14.0561L4.00953 13.9854L4.00169 13.9775L5.12633 12.8529L5.19705 12.7822L5.12633 12.7115L4.56381 12.149L4.4931 12.0783L4.42239 12.149L3.3418 13.2297C2.4538 12.0682 1.91895 10.6238 1.89622 9.0547H3.40737H3.50737V8.9547V8.15923V8.05923H3.40737H1.95125C2.14245 6.54313 2.81511 5.17673 3.81165 4.11785L4.95492 5.26105L5.02564 5.33175L5.09634 5.26105L5.65882 4.69857L5.72953 4.62786L5.65882 4.55715Z" fill="#208A43" stroke="#208A43" stroke-width="0.2"/>
<path fill-rule="evenodd" clip-rule="evenodd" d="M11.9183 8.70115L7.39433 11.9626C7.277 12.066 7.20145 12.2086 7.18184 12.3638L7.1111 13.5271C7.29379 13.9799 7.43567 14.1193 7.83985 14.2428L9.00164 14.151C9.15643 14.1286 9.2977 14.0505 9.39897 13.9313L12.5697 9.35106C13.0853 8.74421 12.5157 8.17473 11.9183 8.70115ZM8.82195 13.3672L10.8303 10.4661L7.96873 12.5291L7.91685 13.3825C7.93148 13.4114 7.9415 13.4278 7.94709 13.4362L8.82195 13.3672ZM7.93672 13.4304C7.93672 13.4304 7.93793 13.431 7.9398 13.4324C7.93751 13.4311 7.93672 13.4304 7.93672 13.4304ZM11.9883 8.80207L11.9889 8.80092C11.9889 8.80092 11.9888 8.80128 11.9883 8.80207Z" fill="#208A43"/>
</svg>
