<svg width="20" height="20" viewBox="0 0 20 20" fill="none" xmlns="http://www.w3.org/2000/svg">
<path d="M17.8562 2.14854C17.4395 1.72271 16.8229 1.56521 16.2479 1.73187L2.83952 5.60604C2.23286 5.77438 1.80286 6.25521 1.68702 6.86521C1.56869 7.48687 1.98202 8.27688 2.52202 8.60688L6.71452 11.1669C7.14452 11.4302 7.69952 11.3644 8.05536 11.0077L12.8562 6.20687C13.0979 5.95604 13.4979 5.95604 13.7395 6.20687C13.9812 6.44771 13.9812 6.84021 13.7395 7.09021L8.93036 11.891C8.57369 12.2477 8.50702 12.801 8.76952 13.2319L11.3312 17.4402C11.6312 17.9394 12.1479 18.2235 12.7145 18.2235C12.7812 18.2235 12.8562 18.2235 12.9229 18.2144C13.5729 18.1319 14.0895 17.6894 14.2812 17.0644L18.2562 3.75687C18.4312 3.19021 18.2729 2.57354 17.8562 2.14854" fill="white"/>
<path opacity="0.4" fill-rule="evenodd" clip-rule="evenodd" d="M2.50878 14.0064C2.34878 14.0064 2.18878 13.9456 2.06711 13.8231C1.82295 13.5789 1.82295 13.1839 2.06711 12.9397L3.20461 11.8014C3.44878 11.5581 3.84461 11.5581 4.08878 11.8014C4.33211 12.0456 4.33211 12.4414 4.08878 12.6856L2.95045 13.8231C2.82878 13.9456 2.66878 14.0064 2.50878 14.0064ZM5.64311 15.0001C5.48311 15.0001 5.32311 14.9392 5.20145 14.8167C4.95728 14.5726 4.95728 14.1776 5.20145 13.9334L6.33895 12.7951C6.58311 12.5517 6.97895 12.5517 7.22311 12.7951C7.46645 13.0392 7.46645 13.4351 7.22311 13.6792L6.08478 14.8167C5.96311 14.9392 5.80311 15.0001 5.64311 15.0001ZM5.85453 17.9734C5.9762 18.0959 6.1362 18.1567 6.2962 18.1567C6.4562 18.1567 6.6162 18.0959 6.73786 17.9734L7.8762 16.8359C8.11953 16.5917 8.11953 16.1959 7.8762 15.9517C7.63203 15.7084 7.2362 15.7084 6.99203 15.9517L5.85453 17.0901C5.61036 17.3342 5.61036 17.7292 5.85453 17.9734Z" fill="white"/>
</svg>
