<svg width="26" height="26" viewBox="0 0 26 26" fill="none" xmlns="http://www.w3.org/2000/svg">
<path d="M21.3772 8.26276C20.5822 6.50631 19.21 5.04894 17.471 4.11397C15.732 3.17901 13.7221 2.81803 11.7494 3.08635C9.77657 3.35467 7.9497 4.23748 6.5487 5.59952C5.1477 6.96155 4.24986 8.72766 3.99275 10.6272C2.75213 10.9129 1.66383 11.6266 0.93451 12.6329C0.20519 13.6392 -0.114353 14.8679 0.0365632 16.0858C0.18748 17.3036 0.798345 18.4258 1.75315 19.2392C2.70796 20.0526 3.94022 20.5005 5.21591 20.4979C5.56102 20.4979 5.89199 20.3661 6.13602 20.1315C6.38005 19.8969 6.51714 19.5787 6.51714 19.2469C6.51714 18.9151 6.38005 18.5969 6.13602 18.3623C5.89199 18.1276 5.56102 17.9958 5.21591 17.9958C4.52569 17.9958 3.86374 17.7322 3.37569 17.263C2.88763 16.7938 2.61344 16.1574 2.61344 15.4938C2.61344 14.8302 2.88763 14.1938 3.37569 13.7245C3.86374 13.2553 4.52569 12.9917 5.21591 12.9917C5.56102 12.9917 5.89199 12.8599 6.13602 12.6253C6.38005 12.3907 6.51714 12.0724 6.51714 11.7406C6.52046 10.261 7.06924 8.83042 8.06596 7.70302C9.06268 6.57563 10.4428 5.82442 11.9612 5.58288C13.4795 5.34133 15.0378 5.62508 16.3591 6.38371C17.6804 7.14234 18.6793 8.32674 19.1781 9.72648C19.2525 9.94145 19.3862 10.133 19.565 10.2806C19.7437 10.4282 19.9608 10.5264 20.1931 10.5647C21.0598 10.7221 21.8455 11.1572 22.4221 11.7989C22.9988 12.4406 23.3324 13.2511 23.3686 14.0984C23.4048 14.9457 23.1415 15.7798 22.6216 16.4649C22.1017 17.1499 21.3557 17.6454 20.5054 17.8707C20.1706 17.9537 19.8839 18.1611 19.7082 18.4473C19.5325 18.7336 19.4822 19.0752 19.5685 19.397C19.6548 19.7189 19.8705 19.9946 20.1682 20.1635C20.4659 20.3324 20.8213 20.3807 21.156 20.2978C22.5254 19.9499 23.7393 19.1818 24.6134 18.1103C25.4875 17.0387 25.974 15.7222 25.999 14.3607C26.024 12.9991 25.5862 11.6669 24.7521 10.5663C23.9179 9.46576 22.733 8.65696 21.3772 8.26276ZM13.9472 10.8524C13.8234 10.7385 13.6775 10.6492 13.5178 10.5897C13.201 10.4646 12.8456 10.4646 12.5288 10.5897C12.3691 10.6492 12.2232 10.7385 12.0994 10.8524L8.19573 14.6055C7.9507 14.8411 7.81305 15.1606 7.81305 15.4938C7.81305 15.8269 7.9507 16.1464 8.19573 16.382C8.44076 16.6176 8.77309 16.7499 9.11961 16.7499C9.46613 16.7499 9.79846 16.6176 10.0435 16.382L11.7221 14.7557V21.749C11.7221 22.0808 11.8592 22.399 12.1032 22.6336C12.3472 22.8682 12.6782 23 13.0233 23C13.3684 23 13.6994 22.8682 13.9434 22.6336C14.1874 22.399 14.3245 22.0808 14.3245 21.749V14.7557L16.0031 16.382C16.1241 16.4993 16.268 16.5923 16.4266 16.6558C16.5851 16.7194 16.7552 16.7521 16.927 16.7521C17.0988 16.7521 17.2689 16.7194 17.4274 16.6558C17.586 16.5923 17.7299 16.4993 17.8509 16.382C17.9728 16.2657 18.0696 16.1273 18.1357 15.9749C18.2018 15.8224 18.2358 15.6589 18.2358 15.4938C18.2358 15.3286 18.2018 15.1651 18.1357 15.0126C18.0696 14.8602 17.9728 14.7218 17.8509 14.6055L13.9472 10.8524Z" fill="#747579"/>
</svg>
