<svg width="26" height="26" viewBox="0 0 26 26" fill="none" xmlns="http://www.w3.org/2000/svg">
<path d="M16.8782 12.9999C16.8782 15.1449 15.1449 16.8782 12.9999 16.8782C10.8549 16.8782 9.12158 15.1449 9.12158 12.9999C9.12158 10.8549 10.8549 9.12158 12.9999 9.12158C15.1449 9.12158 16.8782 10.8549 16.8782 12.9999Z" stroke="#747579" stroke-width="2" stroke-linecap="round" stroke-linejoin="round"/>
<path d="M13 20C16.9683 20 20.6668 18.2405 23.2412 15.1952C24.2529 14.0024 24.2529 11.9976 23.2412 10.8048C20.6668 7.75952 16.9683 6 13 6C9.03168 6 5.33316 7.75952 2.75881 10.8048C1.74706 11.9976 1.74706 14.0024 2.75881 15.1952C5.33316 18.2405 9.03168 20 13 20Z" stroke="#747579" stroke-width="2" stroke-linecap="round" stroke-linejoin="round"/>
</svg>
