<svg width="29" height="29" viewBox="0 0 29 29" fill="none" xmlns="http://www.w3.org/2000/svg">
<circle cx="14.5" cy="14.5" r="14.5" fill="#066AC9"/>
<g clip-path="url(#clip0_92_694)">
<path d="M20.125 14.875C20.0101 14.8749 19.8963 14.8975 19.7901 14.9415C19.6839 14.9854 19.5874 15.0499 19.5061 15.1311C19.4249 15.2124 19.3604 15.3089 19.3165 15.4151C19.2725 15.5213 19.2499 15.6351 19.25 15.75V18.375H8.75V15.75C8.75 15.5179 8.65781 15.2954 8.49372 15.1313C8.32962 14.9672 8.10706 14.875 7.875 14.875C7.64294 14.875 7.42038 14.9672 7.25628 15.1313C7.09219 15.2954 7 15.5179 7 15.75V19.25C6.99993 19.3649 7.02252 19.4787 7.06647 19.5849C7.11042 19.6911 7.17487 19.7876 7.25614 19.8689C7.3374 19.9501 7.43389 20.0146 7.54007 20.0585C7.64626 20.1025 7.76008 20.1251 7.875 20.125H20.125C20.2399 20.1251 20.3537 20.1025 20.4599 20.0585C20.5661 20.0146 20.6626 19.9501 20.7439 19.8689C20.8251 19.7876 20.8896 19.6911 20.9335 19.5849C20.9775 19.4787 21.0001 19.3649 21 19.25V15.75C21.0001 15.6351 20.9775 15.5213 20.9335 15.4151C20.8896 15.3089 20.8251 15.2124 20.7439 15.1311C20.6626 15.0499 20.5661 14.9854 20.4599 14.9415C20.3537 14.8975 20.2399 14.8749 20.125 14.875V14.875Z" fill="white"/>
<path d="M13.3814 16.3687C13.4626 16.4499 13.559 16.5144 13.6652 16.5584C13.7713 16.6024 13.8851 16.625 14 16.625C14.1149 16.625 14.2287 16.6024 14.3349 16.5584C14.441 16.5144 14.5374 16.4499 14.6187 16.3687L17.2437 13.7437C17.407 13.5794 17.4985 13.3571 17.4982 13.1255C17.4979 12.8939 17.4057 12.6718 17.242 12.5081C17.0782 12.3443 16.8561 12.2521 16.6245 12.2518C16.3929 12.2515 16.1706 12.343 16.0064 12.5063L14.875 13.6377V8.75C14.875 8.51794 14.7828 8.29538 14.6187 8.13128C14.4546 7.96719 14.2321 7.875 14 7.875C13.768 7.875 13.5454 7.96719 13.3813 8.13128C13.2172 8.29538 13.125 8.51794 13.125 8.75V13.6377L11.9937 12.5063C11.8294 12.343 11.6071 12.2515 11.3755 12.2518C11.1439 12.2521 10.9219 12.3443 10.7581 12.5081C10.5943 12.6718 10.5022 12.8939 10.5018 13.1255C10.5015 13.3571 10.593 13.5794 10.7564 13.7437L13.3814 16.3687Z" fill="white"/>
</g>
<defs>
<clipPath id="clip0_92_694">
<rect width="14" height="14" fill="white" transform="translate(7 7)"/>
</clipPath>
</defs>
</svg>
