<svg width="44" height="44" viewBox="0 0 44 44" fill="none" xmlns="http://www.w3.org/2000/svg">
<rect width="44" height="44" rx="22" fill="#FFEAB7"/>
<path d="M21.999 35.0108C29.1847 35.0108 35.0098 29.1857 35.0098 22C35.0098 14.8144 29.1847 8.98926 21.999 8.98926C14.8134 8.98926 8.98828 14.8144 8.98828 22C8.98828 29.1857 14.8134 35.0108 21.999 35.0108Z" fill="#066AC9"/>
<path d="M27.2417 21.3102L23.3384 17.407C22.9611 17.0297 22.3366 17.0297 21.9593 17.407C21.582 17.7843 21.582 18.4088 21.9593 18.7861L24.1971 21.024H17.4446C16.9111 21.024 16.4688 21.4664 16.4688 21.9998C16.4688 22.5332 16.9111 22.9756 17.4446 22.9756H24.1971L21.9593 25.2135C21.582 25.5908 21.582 26.2153 21.9593 26.5926C22.1544 26.7878 22.4017 26.8788 22.6489 26.8788C22.8961 26.8788 23.1433 26.7878 23.3384 26.5926L27.2417 22.6894C27.619 22.3121 27.619 21.6875 27.2417 21.3102Z" fill="#FFEAB7"/>
</svg>
