<svg width="160" height="48" viewBox="0 0 160 48" fill="none" xmlns="http://www.w3.org/2000/svg">
<path d="M136.323 47.031C128.461 47.0828 125.794 45.9692 122.399 43.3264C119.004 40.6835 117.425 36.4714 117.143 31.1057H127.883C128.36 36.6282 131.423 38.7742 136.559 38.7432C140.553 38.731 144.136 37.7857 143.714 33.7714C143.435 29.5921 137.093 30.2782 128.862 26.7935C123.094 25.0771 117.571 20.4975 118.049 13.3504C118.775 3.63572 127.509 0.036081 135.707 9.64291e-06C145.49 -0.00784749 152.961 4.78572 153.094 14.8128L142.521 14.6661C142.473 8.75321 135.929 8.73428 135.12 8.72357C130.868 8.58428 128.763 10.8857 128.865 12.7268C128.906 16.2282 133.208 17.1768 137.415 18.5232C145.32 21.0336 154.596 22.531 154.648 33.1157C154.566 37.3339 153.403 40.4507 149.874 43.2764C147.15 45.4053 142.522 46.9992 136.323 47.031Z" fill="white"/>
<path d="M0 1.91589H11.4611V46.3326H0V1.91589Z" fill="white"/>
<path d="M16.3096 1.91589H50.5452V10.9552H27.4428V19.2762H50.5452V28.0923H27.4428V37.2023H50.5452V46.3326H16.3096V1.91589Z" fill="white"/>
<path d="M54.9531 1.91589H66.267V36.7908H87.1316V46.3326H54.9531V1.91589Z" fill="white"/>
<path d="M78.8213 1.91589H115.705V10.9552H102.926V46.3326H91.6527V10.9552H78.8213V1.91589Z" fill="white"/>
<path d="M151.984 7.08033V2.67498H150.49V1.77783H154.491V2.67498H153.001V7.08033H151.984Z" fill="white"/>
<path d="M155.138 7.08027V1.77814H156.659L157.573 5.39492L158.476 1.77814H160.001V7.08027H159.056V2.90635L158.057 7.08027H157.078L156.083 2.90635V7.08027H155.138Z" fill="white"/>
</svg>
