<svg width="42" height="42" viewBox="0 0 42 42" fill="none" xmlns="http://www.w3.org/2000/svg">
<circle cx="20.7517" cy="20.7517" r="20.7517" fill="white"/>
<path d="M17.0813 19.9975C17.0813 20.6826 17.6308 21.2431 18.2994 21.2431H19.6732C20.2593 21.2431 20.7356 20.7538 20.7356 20.1577C20.7356 19.5082 20.4425 19.2769 20.0121 19.1256L17.814 18.3783C17.3744 18.2271 17.0813 17.9957 17.0813 17.3463C17.0813 16.7502 17.5575 16.2609 18.1437 16.2609H19.5175C20.1952 16.2698 20.7448 16.8214 20.7448 17.5064" stroke="#18487F" stroke-width="1.35337" stroke-linecap="round" stroke-linejoin="round"/>
<path d="M18.9131 21.2885V21.9468" stroke="#18487F" stroke-width="1.35337" stroke-linecap="round" stroke-linejoin="round"/>
<path d="M18.9131 15.5586V16.2525" stroke="#18487F" stroke-width="1.35337" stroke-linecap="round" stroke-linejoin="round"/>
<path d="M18.9039 25.8517C22.9454 25.8517 26.2217 22.6691 26.2217 18.7431C26.2217 14.8171 22.9454 11.6345 18.9039 11.6345C14.8625 11.6345 11.5862 14.8171 11.5862 18.7431C11.5862 22.6691 14.8625 25.8517 18.9039 25.8517Z" stroke="#18487F" stroke-width="1.35337" stroke-linecap="round" stroke-linejoin="round"/>
<path d="M21.6414 27.5429C22.4656 28.6728 23.812 29.4112 25.3506 29.4112C27.8509 29.4112 29.8841 27.4361 29.8841 25.0073C29.8841 23.5304 29.1331 22.2226 27.9883 21.4219" stroke="#18487F" stroke-width="1.35337" stroke-linecap="round" stroke-linejoin="round"/>
</svg>
