<svg width="27" height="27" viewBox="0 0 27 27" fill="none" xmlns="http://www.w3.org/2000/svg">
<circle cx="13.5" cy="13.5" r="13.5" fill="#066AC9"/>
<path d="M8.34895 15.4817C8.92684 15.48 9.48288 15.2606 9.90625 14.8672L14.0423 17.2306C13.9037 17.7721 13.9648 18.3454 14.2144 18.8456C14.464 19.3458 14.8854 19.7393 15.4014 19.9542C15.9174 20.1691 16.4936 20.1909 17.0244 20.0157C17.5552 19.8405 18.0051 19.48 18.2919 19.0002C18.5786 18.5203 18.6829 17.9533 18.5857 17.4028C18.4885 16.8523 18.1963 16.3553 17.7626 16.0027C17.3289 15.65 16.7827 15.4654 16.224 15.4826C15.6653 15.4997 15.1315 15.7175 14.7202 16.0961L10.5841 13.7328C10.6277 13.5676 10.6515 13.3965 10.6555 13.2253L14.7189 10.9029C15.1102 11.2589 15.6119 11.4695 16.1401 11.4994C16.6682 11.5292 17.1905 11.3766 17.6194 11.067C18.0483 10.7574 18.3577 10.3097 18.4957 9.79909C18.6336 9.28843 18.5918 8.74587 18.3772 8.26241C18.1625 7.77895 17.7881 7.38401 17.3168 7.14386C16.8455 6.9037 16.306 6.83294 15.7887 6.94344C15.2714 7.05394 14.8078 7.33898 14.4758 7.75074C14.1437 8.1625 13.9634 8.67593 13.965 9.20489C13.9677 9.39518 13.9934 9.5848 14.0423 9.76848L10.2868 11.9138C10.069 11.5769 9.76734 11.3024 9.41139 11.1174C9.05543 10.9323 8.65745 10.8431 8.25656 10.8584C7.85567 10.8737 7.46565 10.993 7.12483 11.2046C6.78401 11.4163 6.50411 11.7129 6.31263 12.0655C6.12115 12.418 6.02467 12.8143 6.03269 13.2154C6.0407 13.6165 6.15293 14.0086 6.35834 14.3532C6.56375 14.6978 6.85528 14.9831 7.20429 15.1809C7.55329 15.3788 7.94776 15.4824 8.34895 15.4817V15.4817Z" fill="white"/>
</svg>
