<svg width="42" height="42" viewBox="0 0 42 42" fill="none" xmlns="http://www.w3.org/2000/svg">
<circle cx="20.7517" cy="20.7517" r="20.7517" fill="white"/>
<path d="M18.9934 12.2065L13.5619 15.7523C11.8205 16.8892 11.8205 19.4335 13.5619 20.5704L18.9934 24.1162C19.9678 24.7568 21.5738 24.7568 22.5483 24.1162L27.9528 20.5704C29.6851 19.4335 29.6851 16.8982 27.9528 15.7614L22.5483 12.2155C21.5738 11.5659 19.9678 11.5659 18.9934 12.2065Z" stroke="#18487F" stroke-width="1.35337" stroke-linecap="round" stroke-linejoin="round"/>
<path d="M15.0056 21.7253L14.9966 25.9568C14.9966 27.1027 15.8808 28.3297 16.9635 28.6906L19.8417 29.647C20.3379 29.8094 21.1589 29.8094 21.6642 29.647L24.5424 28.6906C25.6251 28.3297 26.5093 27.1027 26.5093 25.9568V21.7704" stroke="#18487F" stroke-width="1.35337" stroke-linecap="round" stroke-linejoin="round"/>
<path d="M29.2339 23.4576V18.0441" stroke="#18487F" stroke-width="1.35337" stroke-linecap="round" stroke-linejoin="round"/>
</svg>
