<svg width="42" height="42" viewBox="0 0 42 42" fill="none" xmlns="http://www.w3.org/2000/svg">
<circle cx="20.7517" cy="20.7517" r="20.7517" fill="white"/>
<path d="M11.7935 14.0742C12.5153 10.9524 17.216 10.9524 17.9288 14.0742C18.3529 15.9058 17.189 17.4576 16.1784 18.423C15.4386 19.1268 14.2747 19.1178 13.5348 18.423C12.5333 17.4576 11.3694 15.9058 11.7935 14.0742Z" stroke="#18487F" stroke-width="1.35337"/>
<path d="M23.5227 24.9012C24.2445 21.7794 28.9723 21.7794 29.6941 24.9012C30.1181 26.7327 28.9542 28.2846 27.9347 29.25C27.1948 29.9538 26.0219 29.9447 25.2821 29.25C24.2625 28.2846 23.0986 26.7327 23.5227 24.9012Z" stroke="#18487F" stroke-width="1.35337"/>
<path d="M20.7527 14.4351H23.1707C24.8399 14.4351 25.6158 16.5012 24.3617 17.602L17.1527 23.9087C15.8986 25.0004 16.6745 27.0666 18.3347 27.0666H20.7527" stroke="#18487F" stroke-width="1.35337" stroke-linecap="round" stroke-linejoin="round"/>
<path d="M14.8757 14.8862H14.8861" stroke="#18487F" stroke-width="1.8045" stroke-linecap="round" stroke-linejoin="round"/>
<path d="M26.6049 25.7132H26.6154" stroke="#18487F" stroke-width="1.8045" stroke-linecap="round" stroke-linejoin="round"/>
</svg>
