<svg width="28" height="28" viewBox="0 0 28 28" fill="none" xmlns="http://www.w3.org/2000/svg">
<rect x="0.477791" y="0.477791" width="27.0444" height="27.0444" rx="13.5222" fill="#DCDCDD"/>
<rect x="0.477791" y="0.477791" width="27.0444" height="27.0444" rx="13.5222" stroke="#B1B1B5" stroke-width="0.955583"/>
<path opacity="0.4" d="M14.8106 17.7424C15.3841 17.7424 15.849 17.2774 15.849 16.704C15.849 16.1305 15.3841 15.6656 14.8106 15.6656C14.2371 15.6656 13.7722 16.1305 13.7722 16.704C13.7722 17.2774 14.2371 17.7424 14.8106 17.7424Z" fill="#374151"/>
<path d="M17.773 12.7032H11.8484C9.2365 12.7032 8.44019 13.4996 8.44019 16.1115V17.2964C8.44019 19.9083 9.2365 20.7047 11.8484 20.7047H17.773C20.385 20.7047 21.1813 19.9083 21.1813 17.2964V16.1115C21.1813 13.4996 20.385 12.7032 17.773 12.7032ZM14.8107 18.6279C13.7469 18.6279 12.8868 17.7615 12.8868 16.704C12.8868 15.6464 13.7469 14.78 14.8107 14.78C15.8746 14.78 16.7346 15.6464 16.7346 16.704C16.7346 17.7615 15.8746 18.6279 14.8107 18.6279Z" fill="#374151"/>
<path opacity="0.4" d="M11.7018 12.7096V11.9643C11.7018 10.0977 12.2306 8.85544 14.8106 8.85544C17.3907 8.85544 17.9195 10.0977 17.9195 11.9643V12.7096C18.2444 12.716 18.5374 12.7287 18.8113 12.767V11.9643C18.8113 10.2442 18.3973 7.96356 14.8106 7.96356C11.224 7.96356 10.8099 10.2442 10.8099 11.9643V12.7606C11.0775 12.7287 11.3769 12.7096 11.7018 12.7096Z" fill="#374151"/>
</svg>
