<svg width="28" height="28" viewBox="0 0 28 28" fill="none" xmlns="http://www.w3.org/2000/svg">
<rect x="0.5" y="0.5" width="27" height="27" rx="13.5" fill="#B0F41F"/>
<rect x="0.5" y="0.5" width="27" height="27" rx="13.5" stroke="black"/>
<path d="M13.2011 17.5C13.4826 17.5 13.7185 17.3606 13.8783 17.1051L17.3098 11.6692C17.4163 11.5066 17.5 11.3208 17.5 11.1427C17.5 10.7555 17.1652 10.5 16.8 10.5C16.5717 10.5 16.3663 10.6316 16.2065 10.8949L13.1783 15.8119L11.763 13.9923C11.5804 13.7522 11.3978 13.667 11.1772 13.667C10.7967 13.667 10.5 13.9768 10.5 14.3639C10.5 14.5498 10.5685 14.7201 10.6978 14.8905L12.4935 17.1128C12.6989 17.3761 12.9196 17.5 13.2011 17.5Z" fill="#1C1C1E"/>
</svg>
