<svg width="43" height="44" viewBox="0 0 43 44" fill="none" xmlns="http://www.w3.org/2000/svg">
<circle cx="21.5" cy="21.618" r="21" fill="#FBF1E3" stroke="#FFB023"/>
<g clip-path="url(#clip0_572_1047)">
<path d="M24.1454 23.3762C23.8711 23.3762 23.6482 23.1542 23.6475 22.8796C23.6466 22.6046 23.8689 22.3809 24.144 22.3801C25.395 22.3762 26.5853 21.6209 27.4954 20.2531C28.3689 18.9402 28.8822 17.2234 28.9604 15.3743H26.7666C26.4915 15.3743 26.2686 15.1513 26.2686 14.8762C26.2686 14.6011 26.4915 14.3782 26.7666 14.3782H29.4689C29.744 14.3782 29.967 14.6011 29.967 14.8762C29.967 17.1078 29.3837 19.2132 28.3248 20.8049C27.2247 22.4581 25.7411 23.3713 24.1471 23.3762C24.1465 23.3762 24.146 23.3762 24.1454 23.3762Z" fill="#FFB023"/>
<path d="M18.7884 23.3762C18.7877 23.3762 18.7873 23.3762 18.7868 23.3762C17.1928 23.3713 15.709 22.4581 14.6091 20.8049C13.5501 19.2132 12.9668 17.1078 12.9668 14.8762C12.9668 14.6011 13.1898 14.3782 13.4648 14.3782H16.1671C16.4422 14.3782 16.6652 14.6011 16.6652 14.8762C16.6652 15.1513 16.4422 15.3743 16.1671 15.3743H13.9734C14.0516 17.2234 14.5648 18.9402 15.4384 20.2531C16.3485 21.6209 17.5387 22.3762 18.7898 22.3801C19.0649 22.3809 19.2872 22.6046 19.2863 22.8796C19.2855 23.1542 19.0627 23.3761 18.7884 23.3762Z" fill="#FFB023"/>
<path d="M26.8017 13.1512H16.1323C15.8574 13.1512 15.6343 13.3741 15.6343 13.6492C15.6343 16.5749 16.2079 19.3333 17.2494 21.4163C17.9167 22.7508 18.7328 23.7195 19.6353 24.2741V26.9857C19.6353 27.2608 19.8583 27.4838 20.1333 27.4838H22.8007C23.0758 27.4838 23.2988 27.2608 23.2988 26.9857V24.2741C24.2012 23.7196 25.0174 22.7508 25.6846 21.4163C26.7261 19.3333 27.2997 16.5749 27.2997 13.6492C27.2997 13.3741 27.0768 13.1512 26.8017 13.1512Z" fill="#FFB023"/>
<path d="M24.1341 26.4877H18.7995C17.7896 26.4877 16.9678 27.3095 16.9678 28.3195V29.6532C16.9678 29.9282 17.1907 30.1511 17.4658 30.1511H25.4678C25.7429 30.1511 25.9658 29.9282 25.9658 29.6532V28.3195C25.9658 27.3095 25.1442 26.4877 24.1341 26.4877Z" fill="#FF8E1D"/>
<path d="M26.001 30.1511H16.9321C16.6572 30.1511 16.4341 29.9281 16.4341 29.6531C16.4341 29.378 16.6572 29.1551 16.9321 29.1551H26.001C26.2761 29.1551 26.499 29.378 26.499 29.6531C26.499 29.9281 26.2761 30.1511 26.001 30.1511Z" fill="#FF8E1D"/>
</g>
<defs>
<clipPath id="clip0_572_1047">
<rect width="17" height="17" fill="white" transform="translate(13 13.118)"/>
</clipPath>
</defs>
</svg>
