<svg width="30" height="30" viewBox="0 0 30 30" fill="none" xmlns="http://www.w3.org/2000/svg">
<rect x="0.5" y="0.5" width="29" height="29" rx="14.5" stroke="#B1B1B5"/>
<path opacity="0.4" d="M15.2139 21.8802C18.8958 21.8802 21.8806 18.8954 21.8806 15.2135C21.8806 11.5316 18.8958 8.54684 15.2139 8.54684C11.532 8.54684 8.54724 11.5316 8.54724 15.2135C8.54724 18.8954 11.532 21.8802 15.2139 21.8802Z" fill="#292D32"/>
<path d="M17.6872 17.8335C17.6005 17.8335 17.5139 17.8135 17.4339 17.7602L15.3672 16.5268C14.8539 16.2202 14.4739 15.5468 14.4739 14.9535V12.2202C14.4739 11.9468 14.7005 11.7202 14.9739 11.7202C15.2472 11.7202 15.4739 11.9468 15.4739 12.2202V14.9535C15.4739 15.1935 15.6739 15.5468 15.8805 15.6668L17.9472 16.9002C18.1872 17.0402 18.2605 17.3468 18.1205 17.5868C18.0205 17.7468 17.8539 17.8335 17.6872 17.8335Z" fill="#292D32"/>
</svg>
