<svg width="63" height="107" viewBox="0 0 63 107" fill="none" xmlns="http://www.w3.org/2000/svg">
<path d="M37.5554 18.3328H25.4413L0.188198 100.658C-0.00705175 101.3 -0.0493502 101.978 0.0646939 102.638C0.178738 103.299 0.445951 103.924 0.844915 104.462C1.24388 105.001 1.7635 105.439 2.36212 105.74C2.96074 106.042 3.62171 106.199 4.29205 106.199H58.7081C59.3792 106.2 60.041 106.042 60.6403 105.74C61.2396 105.438 61.7597 105 62.1588 104.46C62.5579 103.921 62.8249 103.295 62.9383 102.634C63.0517 101.972 63.0085 101.293 62.8119 100.652L37.5554 18.3328Z" fill="#066AC9"/>
<path opacity="0.2" d="M37.5552 18.3328H31.4999L23.8201 106.199H58.7079C59.379 106.2 60.0408 106.042 60.6401 105.74C61.2394 105.438 61.7595 105 62.1586 104.46C62.5577 103.921 62.8247 103.295 62.9381 102.634C63.0516 101.972 63.0083 101.293 62.8117 100.652L37.5552 18.3328Z" fill="#263238"/>
<path opacity="0.2" d="M37.5552 18.3328H34.7115L43.379 106.199H58.7045C59.3757 106.2 60.0374 106.042 60.6367 105.74C61.236 105.438 61.7561 105 62.1552 104.46C62.5544 103.921 62.8213 103.295 62.9348 102.634C63.0482 101.972 63.0049 101.293 62.8084 100.652L37.5552 18.3328Z" fill="#263238"/>
<path opacity="0.2" d="M25.4413 18.3328H28.36L7.4729 106.199H4.29199C3.62087 106.2 2.95908 106.042 2.35978 105.74C1.76048 105.438 1.24039 105 0.841282 104.46C0.442171 103.921 0.175174 103.295 0.061741 102.634C-0.0516922 101.972 -0.00840176 101.293 0.188139 100.652L25.4413 18.3328Z" fill="white"/>
<path d="M31.4046 15.0602C33.1732 15.0594 34.8926 15.642 36.2965 16.7177C37.7003 17.7934 38.7102 19.302 39.1696 21.0099L43.0793 35.5522L42.0406 40.1499L38.0627 36.3832L34.2926 45.0404L30.8597 39.0226L26.5958 45.0404L24.7431 36.0154L20.8674 41.1511L19.9479 35.2116L23.626 21.0576C24.0771 19.3386 25.0852 17.8176 26.4926 16.7324C27.9 15.6473 29.6274 15.0592 31.4046 15.0602Z" fill="#066AC9"/>
<path opacity="0.7" d="M31.4046 15.0602C33.1732 15.0594 34.8926 15.642 36.2965 16.7177C37.7003 17.7934 38.7102 19.302 39.1696 21.0099L43.0793 35.5522L42.0406 40.1499L38.0627 36.3832L34.2926 45.0404L30.8597 39.0226L26.5958 45.0404L24.7431 36.0154L20.8674 41.1511L19.9479 35.2116L23.626 21.0576C24.0771 19.3386 25.0852 17.8176 26.4926 16.7324C27.9 15.6473 29.6274 15.0592 31.4046 15.0602Z" fill="white"/>
<path d="M23.8202 106.54C23.755 106.54 23.6912 106.522 23.6363 106.487C23.5813 106.452 23.5376 106.402 23.5103 106.343L17.7376 93.837C17.7078 93.7717 17.6993 93.6988 17.7133 93.6284C17.7274 93.5581 17.7633 93.494 17.816 93.4453L40.2935 72.3914L26.3302 45.1868C26.297 45.1204 26.2852 45.0455 26.2961 44.9722L31.1799 15.9115C31.1948 15.8212 31.2449 15.7405 31.3193 15.6872C31.3937 15.6338 31.4863 15.6122 31.5766 15.6271C31.6669 15.642 31.7476 15.6922 31.801 15.7666C31.8543 15.841 31.8759 15.9336 31.861 16.0239L26.9943 44.9722L41.0189 72.3062C41.0524 72.3716 41.0638 72.446 41.0516 72.5185C41.0393 72.5909 41.0039 72.6574 40.9508 72.7081L18.4732 93.7688L24.1403 106.06C24.1787 106.142 24.183 106.235 24.1524 106.32C24.1217 106.405 24.0586 106.475 23.9768 106.513C23.9273 106.534 23.8738 106.543 23.8202 106.54Z" fill="white"/>
<path d="M44.0684 73.2529C44.5078 71.3911 43.3548 69.5257 41.4931 69.0863C39.6314 68.6469 37.7659 69.7999 37.3265 71.6616C36.8871 73.5234 38.0401 75.3888 39.9018 75.8282C41.7636 76.2676 43.629 75.1146 44.0684 73.2529Z" fill="#066AC9"/>
<path d="M40.7022 76.2667C39.9498 76.2667 39.2143 76.0436 38.5887 75.6256C37.9631 75.2076 37.4755 74.6135 37.1876 73.9184C36.8997 73.2233 36.8243 72.4584 36.9711 71.7204C37.1179 70.9825 37.4802 70.3047 38.0122 69.7727C38.5442 69.2406 39.2221 68.8783 39.96 68.7315C40.6979 68.5848 41.4628 68.6601 42.1579 68.948C42.8531 69.236 43.4472 69.7235 43.8652 70.3491C44.2832 70.9747 44.5063 71.7102 44.5063 72.4626C44.5054 73.4712 44.1043 74.4383 43.3911 75.1515C42.6779 75.8648 41.7108 76.2658 40.7022 76.2667ZM40.7022 69.343C40.0843 69.343 39.4804 69.5262 38.9668 69.8695C38.4531 70.2129 38.0528 70.7008 37.8165 71.2717C37.5803 71.8425 37.5186 72.4706 37.6394 73.0765C37.7602 73.6824 38.058 74.2389 38.4951 74.6755C38.9322 75.1121 39.4889 75.4093 40.095 75.5294C40.701 75.6495 41.329 75.5872 41.8996 75.3503C42.4702 75.1134 42.9578 74.7126 43.3005 74.1986C43.6433 73.6846 43.8258 73.0804 43.8252 72.4626C43.8243 71.6349 43.4948 70.8414 42.9093 70.2565C42.3237 69.6716 41.5298 69.343 40.7022 69.343Z" fill="white"/>
<path d="M21.8349 93.9354C22.1409 92.0416 20.8538 90.2583 18.9601 89.9523C17.0663 89.6462 15.283 90.9333 14.977 92.827C14.6709 94.7208 15.958 96.5041 17.8517 96.8102C19.7455 97.1162 21.5288 95.8291 21.8349 93.9354Z" fill="#066AC9"/>
<path d="M18.0476 97.4945C17.2951 97.4945 16.5595 97.2713 15.9338 96.8531C15.3081 96.435 14.8205 95.8406 14.5327 95.1453C14.2449 94.45 14.1698 93.6849 14.3168 92.9469C14.4639 92.2089 14.8265 91.5311 15.3589 90.9992C15.8912 90.4673 16.5694 90.1053 17.3075 89.9589C18.0457 89.8125 18.8107 89.8883 19.5058 90.1767C20.2008 90.4652 20.7947 90.9533 21.2123 91.5793C21.6299 92.2054 21.8524 92.9412 21.8518 93.6937C21.8509 94.7021 21.4497 95.6688 20.7363 96.3815C20.023 97.0941 19.0559 97.4945 18.0476 97.4945ZM18.0476 90.5707C17.4299 90.5707 16.8261 90.7539 16.3126 91.097C15.799 91.4402 15.3987 91.9279 15.1623 92.4986C14.926 93.0693 14.8641 93.6972 14.9846 94.303C15.1051 94.9088 15.4026 95.4653 15.8393 95.902C16.2761 96.3388 16.8325 96.6362 17.4383 96.7567C18.0442 96.8772 18.6721 96.8154 19.2427 96.579C19.8134 96.3426 20.3011 95.9424 20.6443 95.4288C20.9875 94.9152 21.1706 94.3114 21.1706 93.6937C21.1697 92.8657 20.8404 92.0719 20.2549 91.4864C19.6694 90.9009 18.8756 90.5716 18.0476 90.5707Z" fill="white"/>
<path d="M26.6265 48.4931C28.5394 48.4931 30.0901 46.9424 30.0901 45.0296C30.0901 43.1167 28.5394 41.566 26.6265 41.566C24.7136 41.566 23.1629 43.1167 23.1629 45.0296C23.1629 46.9424 24.7136 48.4931 26.6265 48.4931Z" fill="#066AC9"/>
<path d="M26.6265 48.8343C25.8742 48.8343 25.1387 48.6112 24.5131 48.1932C23.8875 47.7752 23.3999 47.181 23.112 46.4859C22.824 45.7908 22.7487 45.0259 22.8955 44.288C23.0423 43.55 23.4046 42.8722 23.9366 42.3402C24.4686 41.8082 25.1465 41.4459 25.8844 41.2991C26.6223 41.1523 27.3872 41.2276 28.0823 41.5156C28.7774 41.8035 29.3716 42.2911 29.7896 42.9167C30.2076 43.5422 30.4307 44.2777 30.4307 45.0301C30.4298 46.0388 30.0287 47.0059 29.3155 47.7191C28.6023 48.4323 27.6352 48.8334 26.6265 48.8343ZM26.6265 41.9071C26.0089 41.9071 25.4051 42.0903 24.8915 42.4334C24.3779 42.7766 23.9776 43.2644 23.7413 43.835C23.5049 44.4057 23.443 45.0336 23.5635 45.6394C23.684 46.2452 23.9815 46.8017 24.4182 47.2384C24.855 47.6752 25.4115 47.9726 26.0173 48.0931C26.6231 48.2136 27.251 48.1518 27.8217 47.9154C28.3923 47.679 28.8801 47.2788 29.2232 46.7652C29.5664 46.2516 29.7495 45.6478 29.7495 45.0301C29.7486 44.2021 29.4193 43.4083 28.8338 42.8228C28.2484 42.2373 27.4545 41.908 26.6265 41.9071Z" fill="white"/>
<path d="M35.0683 16.1833C35.3744 14.2895 34.0873 12.5062 32.1935 12.2002C30.2998 11.8941 28.5165 13.1812 28.2104 15.0749C27.9044 16.9687 29.1914 18.752 31.0852 19.058C32.9789 19.3641 34.7623 18.077 35.0683 16.1833Z" fill="#B0F41F"/>
<path d="M31.5102 19.7699C30.7577 19.7699 30.022 19.5467 29.3964 19.1285C28.7707 18.7104 28.2831 18.116 27.9953 17.4207C27.7075 16.7254 27.6323 15.9603 27.7794 15.2223C27.9265 14.4843 28.2891 13.8065 28.8215 13.2746C29.3538 12.7427 30.032 12.3806 30.7701 12.2342C31.5083 12.0878 32.2733 12.1637 32.9683 12.4521C33.6634 12.7406 34.2573 13.2287 34.6749 13.8547C35.0925 14.4808 35.315 15.2166 35.3144 15.9691C35.3126 16.9772 34.9111 17.9434 34.1979 18.6559C33.4848 19.3683 32.5183 19.769 31.5102 19.7699ZM31.5102 12.8461C30.8925 12.8461 30.2887 13.0293 29.7751 13.3724C29.2616 13.7156 28.8613 14.2033 28.6249 14.774C28.3885 15.3446 28.3267 15.9726 28.4472 16.5784C28.5677 17.1842 28.8651 17.7407 29.3019 18.1774C29.7387 18.6142 30.2951 18.9116 30.9009 19.0321C31.5067 19.1526 32.1347 19.0908 32.7053 18.8544C33.276 18.618 33.7637 18.2177 34.1069 17.7042C34.45 17.1906 34.6332 16.5868 34.6332 15.9691C34.6323 15.1411 34.303 14.3473 33.7175 13.7618C33.132 13.1763 32.3382 12.847 31.5102 12.8461Z" fill="white"/>
<path d="M31.5001 15.9862C31.4097 15.9862 31.3231 15.9503 31.2592 15.8864C31.1954 15.8225 31.1595 15.7359 31.1595 15.6456V0.340446C31.1595 0.250122 31.1954 0.163497 31.2592 0.0996278C31.3231 0.0357589 31.4097 -0.00012207 31.5001 -0.00012207C31.5904 -0.00012207 31.677 0.0357589 31.7409 0.0996278C31.8047 0.163497 31.8406 0.250122 31.8406 0.340446V15.6456C31.8406 15.7359 31.8047 15.8225 31.7409 15.8864C31.677 15.9503 31.5904 15.9862 31.5001 15.9862Z" fill="#B0F41F"/>
<path d="M17.7649 6.70545C20.83 7.74759 23.8679 5.68375 26.9228 6.70545V1.50157C23.8577 0.479862 20.8164 2.54371 17.7649 1.50157V6.70545Z" fill="#B0F41F"/>
<path opacity="0.2" d="M21.1093 1.69564V6.89612C23.0471 6.64069 24.985 6.0447 26.9228 6.7054V1.50152C24.985 0.840816 23.0471 1.43681 21.1093 1.69564Z" fill="black"/>
<path d="M22.342 5.54115C25.4072 6.58329 28.4484 4.51945 31.4999 5.54115V0.340672C28.4348 -0.701467 25.3969 1.36238 22.342 0.340672V5.54115Z" fill="#B0F41F"/>
</svg>
