<svg width="28" height="28" viewBox="0 0 28 28" fill="none" xmlns="http://www.w3.org/2000/svg">
<rect x="0.466683" y="0.466683" width="27.0676" height="27.0676" rx="13.5338" fill="#B0F41F"/>
<rect x="0.466683" y="0.466683" width="27.0676" height="27.0676" rx="13.5338" stroke="black" stroke-width="0.933366"/>
<path d="M11.6618 13.0796H16.7253C17.8324 13.0796 18.4286 13.2427 18.7648 13.5549C19.0921 13.8588 19.2648 14.3926 19.2648 15.411V16.3514C19.2648 17.3698 19.0921 17.9036 18.7648 18.2075C18.4286 18.5197 17.8324 18.6829 16.7253 18.6829H11.6618C10.5546 18.6829 9.95843 18.5197 9.62227 18.2075C9.29495 17.9036 9.12225 17.3698 9.12225 16.3514V15.411C9.12225 14.3926 9.29495 13.8588 9.62227 13.5549C9.95843 13.2427 10.5546 13.0796 11.6618 13.0796ZM12.1759 15.8812C12.1759 16.9515 13.1038 17.7814 14.1935 17.7814C15.2833 17.7814 16.2112 16.9515 16.2112 15.8812C16.2112 14.811 15.2833 13.981 14.1935 13.981C13.1038 13.981 12.1759 14.811 12.1759 15.8812Z" fill="#B0F41F" stroke="black" stroke-width="0.746693"/>
<path d="M16.8669 9.72921C17.2092 10.0458 17.2936 10.4876 17.3062 11.0789C17.1806 11.0686 17.051 11.0624 16.9167 11.0584C16.9095 10.7757 16.8848 10.5344 16.8247 10.3332C16.7479 10.0757 16.6119 9.87918 16.3866 9.74278C16.1713 9.61239 15.8895 9.5465 15.5397 9.51038C15.1876 9.47403 14.7444 9.46608 14.1935 9.46608C13.069 9.46608 12.3398 9.71673 11.8994 10.2059C11.4623 10.6914 11.3499 11.3688 11.3499 12.1199V12.527C11.2144 12.5303 11.0846 12.5371 10.961 12.5468V12.1199C10.961 11.4468 11.05 10.7056 11.4833 10.1332C11.9085 9.57133 12.6982 9.13162 14.1935 9.13162C15.7209 9.13162 16.4809 9.37224 16.8669 9.72921Z" fill="white" stroke="black" stroke-width="0.373346"/>
</svg>
