<svg width="30" height="30" viewBox="0 0 30 30" fill="none" xmlns="http://www.w3.org/2000/svg">
<rect x="0.5" y="0.5" width="29" height="29" rx="14.5" stroke="#B1B1B5"/>
<path opacity="0.4" d="M18.1469 8.2135H12.2809C9.73287 8.2135 8.21387 9.7325 8.21387 12.2805V18.1465C8.21387 20.6945 9.73287 22.2135 12.2809 22.2135H18.1469C20.6949 22.2135 22.2139 20.6945 22.2139 18.1465V12.2805C22.2139 9.7325 20.6949 8.2135 18.1469 8.2135Z" fill="#292D32"/>
<path d="M19.6309 13.0225C19.6309 13.3095 19.3999 13.5475 19.1059 13.5475H15.4309C15.1439 13.5475 14.9059 13.3095 14.9059 13.0225C14.9059 12.7355 15.1439 12.4975 15.4309 12.4975H19.1059C19.3999 12.4975 19.6309 12.7355 19.6309 13.0225Z" fill="#292D32"/>
<path d="M13.7928 12.3435L12.2178 13.9185C12.1128 14.0235 11.9798 14.0725 11.8468 14.0725C11.7138 14.0725 11.5738 14.0235 11.4758 13.9185L10.9508 13.3935C10.7408 13.1905 10.7408 12.8545 10.9508 12.6515C11.1538 12.4485 11.4828 12.4485 11.6928 12.6515L11.8468 12.8055L13.0508 11.6015C13.2538 11.3985 13.5828 11.3985 13.7928 11.6015C13.9958 11.8045 13.9958 12.1405 13.7928 12.3435Z" fill="#292D32"/>
<path d="M19.6309 17.9225C19.6309 18.2095 19.3999 18.4475 19.1059 18.4475H15.4309C15.1439 18.4475 14.9059 18.2095 14.9059 17.9225C14.9059 17.6355 15.1439 17.3975 15.4309 17.3975H19.1059C19.3999 17.3975 19.6309 17.6355 19.6309 17.9225Z" fill="#292D32"/>
<path d="M13.7928 17.2435L12.2178 18.8185C12.1128 18.9235 11.9798 18.9725 11.8468 18.9725C11.7138 18.9725 11.5738 18.9235 11.4758 18.8185L10.9508 18.2935C10.7408 18.0905 10.7408 17.7545 10.9508 17.5515C11.1538 17.3485 11.4828 17.3485 11.6928 17.5515L11.8468 17.7055L13.0508 16.5015C13.2538 16.2985 13.5828 16.2985 13.7928 16.5015C13.9958 16.7045 13.9958 17.0405 13.7928 17.2435Z" fill="#292D32"/>
</svg>
